<svg id="background" xmlns="http://www.w3.org/2000/svg" viewBox="0 0 2837.83 1319.82"><defs><style>.cls-1{fill:#2b3300;}.cls-2{fill:#83c17a;}.cls-3{font-size:499.78px;font-family:PTSerif-Bold, PT Serif;font-weight:700;}.cls-3,.cls-5{fill:#252815;}.cls-4{letter-spacing:-0.04em;}.cls-5{font-size:300px;font-family:PTSerif-Regular, PT Serif;}</style></defs><title>logo</title><path class="cls-1" d="M1087.92,770.51Z" transform="translate(0 0)"/><path class="cls-2" d="M1385.13,363c-.14-4.1-2.26-8.08-5.33-11.69-.89-1-.64-2.58-1.13-3.85-.73-1.86-1.65-3.69-2.48-5.53-2.17.61-4.43,1.09-6.49,1.86a22.38,22.38,0,0,0-3.79,2.39c-1.35-2.76-3.54-3.8-7-.7l-2.51-5.43c7.62.2,5.63-3,4.58-4.91l11.45.78v-8.22l2.77-.58-5.77-1.46,1.72-.51a66.43,66.43,0,0,0-2.6-7.6c-.58-1.25-2.68-2.14-3.13-3.38a61,61,0,0,1-1.88-8.09l-1.52.11,2.19-2.28-12.45-5.58,9.54-3.41c-2.17-2.27-3.92-4.9-6.68-6.68-1.64-1.05-4.88-.75-8-1.13-.46-2.37-2.15-3.65-6.31-.75a6.18,6.18,0,0,1-4,.36,3.13,3.13,0,0,1-1.8-2.21,18.77,18.77,0,0,1-.08-4l3.21,1c-2.83-4.66-10.35-6-15-3.38-2.63-1-5-1.83-7.3-2.8a28.39,28.39,0,0,1-3.27-1.89l2.28-1.5L1312,265c-3.95-5.51-6.23-13-3.2-16.12-1-.53-2.08-1.5-3.14-1.52-9.9-.22-11.68-5-11.67-10.89,0-4.89-2.93-6-8.25-3.35-4.9-1.53-4.44-8.37-12.32-6.25,3.54,2.68.22,3.85-2.31,4.88a31.32,31.32,0,0,1-5.3,1.36l-2.69,1.37a50.77,50.77,0,0,1-4.73,4.34c-1.47,1-4.36,1.4-5,2.53-1.26,2.43-1.44,5.17-2.09,7.92-2.48,0-7.78-4.34-8.42-7.64-1.54-7.86-3.16-9.19-10.46-8.54,5.43,6.91,5.43,8.3-.17,9.75V238l-15.12,3.75,8.67,8.1-15.53-2c-3-1.56-5-2.69-7.18-3.69-1.73-.81-3.6-1.44-5.41-2.16l.81-1.53-9.52,2,4.73-8.9-6.53-1.48,2.83-3.73-14.07-2.76-3.61,3.39-6.82-1.46c3.89-5,.11-7.92-4.71-11.37-3.65-2.61-4.67-7.17-10.78-8.22-.1,0,.06-.61-.06-.89-1.14-2.7-2.91-5.36-3.28-8.11a10.22,10.22,0,0,1,1.89-6.76c1.21-1.78,5.91-3.63,5.49-4.41-1.65-3.1-4.33-7.86-7.34-8.17-5.2-.53-5.23-3.15-7.66-4.69l.82-1,8.36,2.91-5.38-7.23c5,2,8.17,3.58,11.63,4.69a6.9,6.9,0,0,0,4.55-.45c.69-.4.67-2.52-.07-3-4.37-2.86-5-8.68-13.8-8.9v5.33l-9.62-4.89-1.14,1.23,1.44,1.9c-4.79-.82-7.05-5.52-4.11-8.2,2.52-2.3,8.8-3,6.06-7.58-.08-.14,1.14-1,1.85-1,5.56-.63,4.82-4.35,5-6.69.08-1.35-3.7-3.11-6.15-4.18s-5.66-1.62-8.52-2.4c6.69-.73,6.69-.73,7.3-4.66l-7.54-1,.16-.64,4.19-.5c-6.36-3.18-8.69-.31-11.21,3l-7.21-4.23L1104.26,130c-5.56,0-10.75-.15-15.91.05-3.23.12-6.43,1.11-9.64,1.07s-6.23-.89-9.94-1.48l.87,6.08-3.41.59-10.06-4.74,2.48-1c-6-.31-11.54-6.31-18.72.1l-5.84-7.75a12.27,12.27,0,0,1-3.27,1.07c-6.12.58-12.71,2.21-18.29,1.12-6-1.18-11.62-4.1-18.19-4.54-3.73-.25-7.52-.1-11.28-.16-8.19-.13-12-4.42-16.42-8.67-3.49-3.38-2.32-6.45-1.9-9.76,7,11.51,7,11.51,13.49,11.31L976.84,111c9.06-2,11.29,5.13,17.44,7.52l1.18-3.5,10.24,2.06c-.28-2.3-.8-3.57-.51-4.74,1.38-5.64-.29-7.32-7.56-8.08-2.09-.22-4-1.46-6-2.23,2.22-1.43,4.23-1.29,5.26-2s2.24-2.54,1.74-3.32c-2.27-3.56-9.53-4.46-13.48-2.11L974.54,81.88c-2.85,1.11-6.53,3.74-9.33,3.32-3.31-.5-5.88-3.66-9.95-6.48-4.88-.63-12.26-1-19.12-2.67-4.53-1.07-7.75-1.23-12,.48-3,1.21-8.1,1.91-10.77.84a8.12,8.12,0,0,0-8.85,1.48c-1.57,1.29-.73,4.17-1,7.07l8.71-3.22c-2.47,5,3.34,9.9-4.19,14,1-3.72-.52-5.41-5.48-6-4.13-.48-6.59-5.68-4.81-8.44-4.61-.86-8.31-6.11-13.62-2.23-2.63,1.92-3.15,5.41-4.63,8.19L883,89.68l-.25.92-12.32.55c3.6,2.94,7.7,6.5,12.13,9.83,2.67,2,4.56,6.19,10.16,2.8.23-.14,1.05.17,1.53.36,2.85,1.11,5.68,2.25,8.85,3.51l-3.22,2,7.91,6.55,5-9,1.69.37-.8,4.29,1,.35,4-4.14.21,1.67,11.41,2.77v3.25l4.45-2.07,1.74,10.1c-10.2-1.5-20.15-3-30.16-4.37-4.06-.54-8.24-.58-12.53-.86-1.12-1.07-2.87-2.88-4.85-4.54-.93-.78-3.32-1.27-3.32-1.9-.05-5-5.72-4.95-9.9-5.94-1.85-.44-4.27.57-6.28.31-3.61-.46-7.11-1.38-11.42-2.27,5.62-1.76,7.27-4.57,2.61-6.56-8-3.4-5.5-8.89-7.07-14.35l-9.55.59-.33-2.32C833,85.51,831.77,85.4,828.2,80.22a20,20,0,0,1-2.79-5A56.91,56.91,0,0,1,824,67.94l6.3.64-8.63-11.3-5.88,1.1,3.73,4.21c-5.05,3.43-7.5,3.19-14.4-.84l3.61-7.68a5.34,5.34,0,0,1,1.56.88c1.91,2,4.57,3,7,1.11,1.24-1,1-3.24.83-4.9-.5-5.73-9.91-5.46-12.68-9.78,0,0-2.51.79-4.46,1.41l-5-2.89,2.19-8.45,5,.49-.77-3.74,5.08,1.4-2.7-8.48c-6.42-.13-11.45.42-12.14,5l-4-4.52,3.24-.84c-5.32-1.49-9.31-1.26-13.27,2.11s-8.5,6.86-14.44,6.48c-3.09-2.71-5.74-4.86-8.1-7.16-2.19-2.12-4.08-4.41-5.29-5.74L732,18.17l.1-.54,11.28-4-6.1-11-8.34,3.62.8-5.84L728.13.15,722.6,6c-4-2.57-8.25-6.4-9.4-5.94-7.52,3-21.07-.34-21,10.73L687.4,7.67c-3.29.75-5.84,2-7.59,1.59-4.14-1-7.68-2.07-11,1-.35.32-2.75-.56-4.34-.91l-2.63,3.69-5.54-3.21c-2.37,3.95-4.6,7.32-6.44,10.8s.06,8.42,3.08,8.67c5,.42,10,.65,15.31,1l-.91,2.47c-4-.06-8-.18-12.07-.15-2.9,0-7.49-.5-8.36.54-2,2.46-3.32,5.81-2.87,8.63.25,1.53,2.08,5.37,7.66,3.77,1.69-.49,4.46,1.05,7.57,1.89-5.67,2.92-10.12,4.12-15.84,2-4.13-1.53-9.88,1.32-7.88,2.87,3.65,2.82,1.67,5.28,1.45,8.18-.49,6.32-2.89,11.68-9.7,15.56l3.18-7.74L609.2,73c1.6,2.57,3.14,4.51,4,6.6,2.17,5.12,9.42,7.25,15.6,4.45.12-.05.58.29.9.47L627,89.26l8.44-4.79-2.28-9.95c9.69-1.31,18.58-5.36,28.19.82-2.16.54-4.39.63-5.48,1.49-1.46,1.16-3.25,3.18-2.78,4.39,1.95,5,1.08,6.68-5.08,8.68-4.73,1.53-9.73,2.78-9.72,8,0,3.2-2.32,6.4-3.83,10.17-12.87-9.5-12.87-9.5-32.77-8.36.81,3.13-.58,4-4.84,2.89-2.14-.53-5.34-.61-7.08.22-4.07,1.95-7.54,4.57-12.31,7.59a4.44,4.44,0,0,1-.51,2.91,15.17,15.17,0,0,1-4.29,3.31c-4-2.54-10-4.91-11.07-8.14s-2.63-4.42-5.5-4.72c0-2.35-.9-5.75.14-6.11,8.48-2.91,2.19-6.11,1.23-9.69L547,90.52l3.12,1.12c-4.61,1.25-9.07,2.64-13.68,3.61-2,.41-5,.57-6.28-.23-5.24-3.24-10.21-6.24-17.35-2.86-6.29-3.42-10.18.53-14.46,2.48-1.63-.75-3.12-1.52-4.7-2.16-4.82-2-9.58-2.67-14,.61-6.27-3-13,.89-19.73-.88-4.85-1.28-10.63-.79-16-.81-3.43,0-6.86.49-11.58.87-2.43-2.23-6.3-1.12-10.16,1.11-2.57,1.49-4.45,4.11-8.81,2.52-.48-.18-2.27,1.05-3,1.86-2.86,3.16-4.58,8-8.48,9.27-7.07,2.21-6,6.08-6.58,9.94-8.66-2.66-5.73,5-11.15,5.65-8.09-1.55-10.15-.75-11.73,5-5,.13-8.79,2.94-10.67,8.36-1.6,4.63-4,8.16-11.83,6.92-.65-.1-1.5.46-2.26.71.41,2.7-1.14,5-1.4,7.3-.36,3.2.26,6.45.45,9.43-2.35,1.62-5,3-6.87,4.89-1.34,1.37-1.53,3.34-2.24,5l7.22.51,6.34,6.93c5.23-4.09,4.74,1.66,7.4,2.72l.18-1.36h10.65l-9.17,9.35c-.34-.5-.6-1.63-1.45-2-5.19-2.22-10.76-4-15.74-6.43-5.22-2.56-7.41.89-9.41,2.64-1.78,1.56-2.85,4.82-1.83,6.58,2.29,4,2.45,3.56-1.06,6.88-2.71,2.56-10.87,3.91-4.65,9l-8.9,4.9,7.27,3.74c-14.43-.14-14.43-.14-15.41,4.91l7.61,5-12.79,3.74.62,1.83,8-.29.72.69-10.8,4.6,2.88,2.62L297,244.58l17.79,2.36.31-1.09-1.9-1.29,4.54-6.93,2.71,1.72c-.2.86-1,1.95-.51,2.56,3.38,4.63-2.24,5.89-5.5,7.74-4,2.3-8.54,4.15-13.47,6.49l9.94,7.41,7.73,1.15,1-3,12.84,4c-5.09,2.55-9.42,4.25-12.9,6.62-2.71,1.84-.3,6,3.33,7,1.17,2.31-6.16,4.74-1.73,6.17l18.33-7.12-4.84-1.12c1.25-.76,2.87-1.35,3.65-2.31,1-1.19,1.21-2.7,1.87-4,.19-.4.74-.7,1.47-1.35L343,273.2l4.26-3.87,2.31,9.59h-5.66l1.26.88c-1.18,1.28-2,2.92-3.67,3.67-.73.34-3-1.11-4.52-1.74-1.82,3.25-4,7.11-6.06,11-.18.35.89,1,1.06,1.51.57,1.81,1.5,3.68,1.23,5.45-.1.67-3,1.41-4.73,1.61-6.51.73-13.05,1.25-20.32,1.92-1-.8-4.47-2.67-4.06-3.52a70.24,70.24,0,0,1,8-12.45c1.39-1.79,4-3.07,6.06-4.58l-1.58-1.26a52.63,52.63,0,0,1-6.28,3.41c-3,1.18-6.3,2.78-9.48,2.8-5.89,0-9,1.58-9.45,5.14,1.33,1.89,3.52,3.76,3,4.45-1.27,1.58-3.67,2.86-6,3.75-1.8.69-4.84,0-6.13.94-5.33,3.68-10.21,7.71-15.7,12-3.92-1.81-7.27-.25-9.83,3.16-1.66,2.21-3.55,4.32-5.31,6.48-3,3.67-18.22,6.86-23.76,4.91l5.85-8.9c-5.56-1.47-9.19.79-11.9,4.72l-1.55-.59,1.11-5.19c-6.74-.67-13.58-1.38-20.44-2-2.81-.26-5.69-.21-8.48-.54-5.4-.64-10.23-.57-13.72,3.32a9.14,9.14,0,0,1-5.14,2.83c-5.35.59-10.85.38-16.22.89-6.06.58-12,4.17-16.71,4.33-10.05.34-14.45,6.08-20.78,7.92-2.56-.62-5.07-1.84-6.09-1.36-6.34,3-15.35,3.64-19.08,11h10.27c.61,5.6-5.47,9-10.92,9.16s-10.75,1.55-16.29.81c-3.57-.48-8.42,3.34-6.53,5,3.55,3.11-.09,4.12-1.89,5.61-2.33,1.92-4.82,3.2-2.25,6.41,1.71,2.14,1.26,5.22,1.74,7.73L56.46,376l-1,1.18L58,381.63c-.83,0-2.54.1-4.22.25-5.53.52-7.06,1.78-4.83,3.77l-5.48,3,2.11.08,3.51,9.78c5.21-8.35,15.07-4,22.77-6.74l-.31,3.11,10.53-.64,10.68-11.51,1.63.68-2.11,4.44,1.17.61,6-6.22c.52,1.77,1.43,3.18,1.21,4.5-.42,2.54-.43,5.45-5.55,5.86-1.21.1-2.28,1.43-3.34,2.24s-1.94,1.6-2.91,2.4l-1.14-3.35-4.48.32c-1.72,1.7-3.09,4.5-5.24,4.88-5.36.94-6.69,2.66-3.19,7.52l-9.1-3.92L56,414.7c5.69,1.57,10.84,2.95,16,4.41s10.45,3.1,17.18,5.1c-5.93,3.09-9.82,5.5-14.21,7.24-2.11.84-7.41.7-7.45.53-1-4.37-4.85-1.91-6.58-1.16-5.18,2.24-10,5-14.84,7.59a2.54,2.54,0,0,0-1.16,2c-.11,4-.05,8-.05,13l12.56-2.06c-1.6,9.6-1.85,9.78-10.27,5.94l3.56-1.59c-.67-.86-1.34-1.72-2-2.58l-10.57,7.06.1.16,3.1-.33c-11.9,3.9-7,13-11.29,19.56a82.17,82.17,0,0,0,16.89-6.5c2.78-1.52,5.42-2.32,7.62-.73,2.86,2.06,5.44,1.48,8.45.87,1-.21,2.22,0,5.22,0-4.11,1.68-6.38,3-9,3.55-2.78.59-6.36,1.26-8.69.47-5.29-1.79-8.1-1.18-10.09,3.26a3.22,3.22,0,0,1-1.78,1.18c-5.17,1.73-10.38,3.39-16.08,5.24v4.05C12.93,493.29,8.3,501.87,13.1,508c1.37,1.74,8.54,3,10.44,1.62,3.33-2.4,6.22-5.14,9.44-7.62l1-2.58c-.74-3.21-2.67-2.46-5.45-.43-2.22-7.44,6.3-9,10.42-12.06l10.54,3.59,10.67-2.39-2.21,5c5.06-.89,5.34-6.9,11.59-3.95l4.08-4.05L75,491.18l-4.07,1.76.35.73,4.27-.25-1.35,7.23,10-6c-.15,2.49-.25,4.1-.36,6,6.64-2,10.06-.63,11.84,3.58.79,1.87,2.86,3.44,4.31,5.09l14-15.22,5.61,10.63c2.05-1.38,5.72-4.48,6.35-4.17,5.82,2.82,9,.37,11.85-3.12,3.38,3,3.48,5.17,0,7.79-2.9,2.19-4.95,5-7.38,7.53l1.3.71h-5.15l-2.23-4.23c-2.2,1.4-3.43,2.5-5,3.14-10.48,4.27-23.43,3.41-33.49,8.66-.64.33-1.87,0-3,0L85,518.14c-7.28,3.34-14.32,5.36-18.94,9s-7,9.06-10.53,14l-4.91-4.84-10.42,7.23,11.51,7.21C48.63,557.64,38,549.93,32.2,555l4.34,3.43c0,2.7-1.44,6.47.46,8.1,4.46,3.8,7-2.12,11.62-2.58.2,1.52.79,3.88.48,3.95C43.62,569.06,38,570,31.72,571L24.5,584.18l11.62-1.51c-2.47,2-4.31,3-5.32,4.35a12.06,12.06,0,0,0-1.54,3.85c3.52,1.05,6.09,1.88,8.71,2.59,3.25.88,6.55,1.65,10.92,2.75,0-.08,1.84-1.5,1.58-2.67-1.14-5.12,2.14-8.49,8.53-8.7v13.55l-4.38-1.24c-3.88,6-8.86,7.59-17.31,6.48-5.94-.78-12-.36-16.23,4.83l10.75-.4-3.7,10.25,8.73-.36L41,609.21l1.48,1.59,26.68-18.38c7.58,2.19,7.54-4.13,12.06-5.65l-1.36-1.36-8.94,6.08c.44-4.91,5-8.31,11.16-8.92h0c5.59,2.53.9,4.93-1.42,8.38l6.06-2.88-1.6,3.8,9.9-4.47-2.21,6.78,3.93,1.5-14.87,9.57c8.8,1.1,10.71,3.4,6.21,7.71-3.45,3.3-6.61,8.14-13.85,6.28l-5.55,9.53-2.34-.16a25.48,25.48,0,0,1,3,3.64,14.14,14.14,0,0,1,1.87,5.19c.05.52-2.08,1.17-3.22,1.76a11.34,11.34,0,0,1-1.28-2.58c-.13-.63.34-1.33.87-3.1l-7,2.78c-2.07-1.41-5.14-2.47-6.27-1.79-4.37,2.62-.63,4.84,1.3,7.46L60.14,639l-2.86,2.42A58.33,58.33,0,0,1,65.36,644c.48.22-.78,2.47-1.24,3.78l-.65-.27v8l-16.36-7c8.39-3,2-6.63,1.94-9.91-.19-6.23-7.86.49-9.06-1.69-2.85.79-5.42,2.26-7.27,1.87-4.31-.9-6.18-.22-6.56,3a28.61,28.61,0,0,1-1.06,4H28c-2.79,2.7-.59,7.77-9.19,8.09l3.65-4.46-7.9-6.31c-4.54.79-3.3,4-4.48,6.5-2.11,4.47-5.42,8.63-8.23,12.93,5.52,2.34,8.83,1.41,17.94-4.53l26,3-13.59,4.58c-4.32-1.14-7-2.48-9.61-2.37s-5,1.69-7.47,2.63l1,1.58,8.1-.75-8.29,4.11,4,2.13-.31,1.48c-3.73.32-7.62,1.46-11.24,1.11C2.32,675,.79,677.39,0,680a18,18,0,0,1,3.43,2c1.57,1.62,2.83,3.4,4.29,5.08,5.17,5.93,11.26,6.19,17.38.81,2.06-1.81,4.24-3.56,6.44-5.39-1.77-5.41-1.77-5.41,4.44-6.69l.31,5,4.22-3.52,3.74,3.4,2-4.5,6.76,2.56-12.39,16c-4.17,0-6.78-.33-9.17.06-7,1.17-3.69,6.35-7.11,9.41l12,1c0,.66.18,2.39.26,3.58L43,709.83c3.66-7-1.1-16.08,8-21.36l3.81,7L49.78,700l13.69,13,2.89-10.46,7.53-.78L69.16,708c6.3-2.93,6.81,1.66,8.1,3l13.92-14.59,4.74,1.41.44,3c2.49-2.65,4.52-5.52,5.24-8.57.9-3.76,1.41-4.2,6.44-2.81.61.17,1.81-.83,2.74-1.28l.75.51-5.1,5.82h3.15l-2.54,5.24,1.93.52,5.83-11.08,1.17,1.2,4.84-1.37,7.09-2,1.27.81c-5.42,3.2-6.62,6.61-1.59,10.54l4.17-4.9,3,5.41,1.49-.13,4.93-14.41,2.56.48c-.21,2.77-.42,5.54-.57,7.53l16.25-6.77v3.27l14.06-3.15.65,1-4,4.68,7.63.72-5,11.1,6.93,1.63-17.58,10.37.37,1.89c9.4,2,12.66-7.23,21.7-6.32v-4.11c2.75.56,5.07,1.52,7.23,1.34,2.69-.22,5.23-1.37,8.08-2.19.69,2.72,2.3,6.42,1.59,6.68-5.3,1.94-1.24,4.74-2.42,7.06l6.39-.27,1,3.75,3.84-2.59.8.43-2.28,4.83H195.07v-8l-6.38,1.05c-2.42-.93-4.5-2.36-6.68-2.45-7.34-.3-16.51,6.59-16.87,12.34l-18.18,2,4.5,5.75-1.64.18.76,6.64,4-1.43c1.91,4,3.94.85,5.35-.13s2.33-2.59,3.94-4.48l.87,3,5.77-1.73,1.81,7,19.83-8.85,7.23,4.75c4.83-2.34,7.88-7.95,15.28-3.87h5.57c-3.61-2.27-2.6-2-1-5.36,1.14-2.43-.86-5.65-1.47-8.52-.18-.85-.38-1.69-.64-2.82l5,2.13,1.21-1.06-3.16-8.8h4.3l-.64-3,1.44-.18,3.65,11.88,4.46,1.39-2.62,2.72,1.76,5.91,3.45-1.65,3.46,3.51,0,0c4,4.07-2.09,7.31-2.68,11.72,8.67-5.83,9.28-5.86,19.17-1.71l-3.14,5,1,1.12c7.8-9.42,17-1.62,25.95-2.5v3l11.84-.35-13.33-17.46,1.58-1.69,8.94,4.94c4.39.72,5.32-.56,4.29-3.58-1.28-3.76-2.07-7.61-3.45-12.87,10.88,4.28,21.65,5.21,28.12,12,8.26,8.72,21,13.53,32.15,19.74,6.54,2.82,14.42,4.48,16.62,11l-3.12-3.45L354,761.28l-1-1.13-3,4-1.38-11.42-18,8-20.6-12.57,13.76,11-.54,1-22.87-5.65-3.86,4c4-.53,7.48-1.83,10.11-1.2,14.51,3.47,28.81,7.41,44.54,11.55-2.51.84-4.74,2.3-6.64,2.09-8.19-.88-8.62-.79-10.07,6.07l3.23.42,3,6.19c4.29-3.95,6.63-7.67,9.44-11.18,2-2.48,3.35-6.49,9.31-2.49,1.64,1.1,6.15,1,8.57.16,12.7-4.26,18.23-2.27,20.65,7.77a8.85,8.85,0,0,0,2.6,4.43c1.11,1,3.25,1.37,5.06,2.07l4.93-2.1v-3.41c6.77-.46,12.05,1.1,16.55,4.68,2.62,2.08,6.22,3.47,9,5.46,8.77,6.28,19.29,11.51,23.65,20.53,5.37,11.14,14.07,20.61,27.75,26.88,11.72,5.38,24.57,9.42,36.32,14.76,10,4.54,20.89,9,28.31,15.44,13.41,11.6,24,24.92,36.74,37s26.66,23.84,40.33,35.55c8.73,7.48,17.64,14.89,27.08,21.88,15.08,11.16,31.07,21.66,45.89,33,9,6.89,16.18,14.93,17.45,25,.58,4.57,1.8,9.09,2.42,13.66,3.51,25.8,7.64,51.56,10.09,77.41,1.46,15.48-5.88,29.86-6.14,45.41,0,1.86-4.7,4.81-4.76,6.67-.35.32-3.68,3.54-4,3.86-10.26,0-6.1-2.53-22.66-1.16-17.26,1.42-17.56-10-34.55-4.31-18.63,6.28-26.17,17.52-29.78,18.83-1.91.69-174.58.41-181.64,1-97.14,8.64,0,6.36,164,6.36h470.27c78.64,0-135.78-23.64-154.28-13.59-2.24,1.22-42.42-7.95-50.94-10.53-9.56-2.89-19.63,11-19.63,11s-33.93-7.35-48.21-11c-11.66-2.94-4.8-3.32-11.66-2.94-.65-70.57-10.31-82.76-18.24-121.11-3.52-17-10.58-25.23-14.12-42.23-2-9.5-1.69-18.79,7.37-26.74,4.15-3.64,7.76-7.64,12.23-11,16.1-12.24,27.27-27.06,39.94-41.06a102.8,102.8,0,0,0,14.77-21.74c13.59-26.19,26.51-52.56,39.76-78.84a79.24,79.24,0,0,1,4.42-6.83l10.5,16.27,1-.57V839c8.41-4.44,5.66-10,4.07-16.26l6.47,2.85,3.46-5.29,2,.33c.61,2.39,1.84,4.9,1.12,7.06-.41,1.22-4.74,1.73-7.36,2.59l13.29,12.05,4.36-3.73c-4.19-5.5-4.19-5.5,0-11.69,1.08,2.07,1.41,5.31,3.38,6,7,2.44,5.29,7,6.26,11l2.26,9.24,1.88.54,5.33-5,1.71.2c2.79-2,5.12-2.94,6-4.38,1.86-3-1.43-7.66-6.63-7.85-7.21-.27-10.33-3.37-14.07-7-2.32-2.23-3.31-6.07-9-5.86-.49,0-1.13-2.11-2-3.82l5.81,1.92c-1.18-4.7-1.54-8.48-3.15-11.94s-2.31-6.19,3.13-7.52c-2.56-.55-6.77-.88-6.88-1.55-1.07-7-5.37-2.49-8.6-1.46-1.57.5-3,1.42-4.56,1.69a6.31,6.31,0,0,1-3.92-.59c-.61-.44-.36-1.89.09-2.72,2.06-3.73,4.32-7.39,6.69-11.39,7,6.49,7,6.49,11.06,5.29-2.37-8.07-2.37-8.07-10.23-10.43l4.5-5.8,14.68,1.48,1.74-3.1,6.16.93-5.28-4.62,1.18-5.43c3.58,2.91,6,5.13,8.8,7a40.56,40.56,0,0,0,6.13,2.82V755.78c8,.44,5.11,6.41,9.15,8.93l3.07-2.67,3,4.64,1.12-1.43,9.55.62,1.09-4.1L969,763l-3.25-5,5.68-1c-4.66-2.56-9.19-6.38-11-5.77-4.7,1.57-8.4-.34-12.47-.1a4.61,4.61,0,0,0-2.1,1.08c-5.56,4-10.94,1.73-16.56.19,1.28-1.06,3.1-2.26,2.91-2.46-2.35-2.56.14-5.3-.78-7.86l-11.21,2.79-5-8.54,1.1-.89,6.76,6.26v-7.35l1.23-.4,5.15,6.38,1.08-.31.49-5.66c4.73,2,4.86,2.3,2.79,6a61.4,61.4,0,0,1,28.4,6.36c0-4-.21-7,.1-10,.13-1.22,2.47-2.79,2-3.47-1.39-1.91-3.47-4.56-5.78-4.86-2.89-.38-6.31,1.23-9.43,2.09-1.64.45-3.14,1.17-5.13,1.93.18-5.61-5.57-10.72-10.15-9.59l-2,3.63-7.75-.56c-2.3-6.5,3.55-9.21,8.87-12.75,8.61-5.73,13.27-1,19.25,2.54l-3.5-5.33c6.69-4.14,8.67,1.54,12.19,3.2l8-9.66c1.83.8,3.4,1.89,4,1.66,1.29-.52,3.17-2.18,2.89-2.53a18.73,18.73,0,0,0-5.28-4.63c-1.56-.89-3.92-1-5.93-1.47l.1-1.16,6.28-2.1c-2.1-1.18-4.4-3.17-5.33-2.87-3.55,1.14-8.28,2.55-9.45,4.76-1,1.95,2,5.11,3.37,7.7.76,1.44,1.76,2.8,2.29,3.65l-29.95,3.61-1.11-1.79c3.68-4.9,7.16-9.9,11.27-14.6,1-1.16,6.09-1.06,6.23-1.85,1.06-5.72,6.33-2.66,10-2.91,1.7-.12,3.4-.14,4.31-.18-.35-3.07-1.68-5.76-.63-7.81a16.09,16.09,0,0,1,7.1-6.65,32.16,32.16,0,0,1,12.66-3.19c4-.07,8.12,1.76,13,3l-3.19-5.3c6.57-2.18,13.11-5,18.79,1.7l1.55-.72-.88-4.29c4.26-.6,8.68-1.49,13.17-1.7,1.72-.08,3.58,1.38,5.38,2.13-1.7.75-3.32,2-5.12,2.16-3.91.36-7.21.87-8,4l8,5.61,4-1.39c.52,1.15.87,1.9,1.21,2.65s.77,1.76,1.17,2.69c4.25-1.75,4.68-3.08,3.75-7a85.56,85.56,0,0,1-1.19-9.61c9.9.52,18.49,1.75,26.86,1.21a39.74,39.74,0,0,1,24.47,5.92c3-1.36,6-3.41,6.86-3a112.68,112.68,0,0,1,15.9,9.21c3.43,2.46,5.75,5.75,8.56,8.67l1.5-.83c-1.79-2-3.62-3.9-5.37-5.88-3.19-3.62-4.8-7,.94-10.42,1.5-.9,1.47-3.36,1.74-5.13.19-1.21-.32-2.48-.61-4.28,5.1,1.81,2.25,8.2,9.83,6.84l11-7.2c-1.81-1.64-3.87-3.09-5.13-4.84-.72-1-.14-2.5-.14-3.77,1.46.33,3,.57,4.37,1s2.39,1.09,5.13,2.39l-1.55-5.82,3.6.35-3.65-4.15,9.79,2.92-3.73-4.63,6.36,1,1-3.31,2.1-.27,3.32,5.35c6.39-3.16-1.39-5.74-.13-9.7l13.46,20.13a52.77,52.77,0,0,1-7.76,5.07c-.63.31-3.6-2-5.49-3.11-4.14-.52-6,.84-6.06,3.91l7.77.92c-3.32,3-3.34,3.08-12.08,1.73-4.8-.75-9.2-1.26-9.63,3.63l-6.75.37L1126.4,674c1.53,4.2,3.38-.64,3.81-.54l2.86,4,9-4.2.79-5.35c4.51,2.61,6.83,8.44,12.78,3.86l7.25,4c-2.25,2-4.4,2.38-8.68,2.33-5.22-.05-11.55-2.6-16.54,1,1.66,9.79-9.14,9-17.8,10l.91,1.17,14.46-1.14,2.61,4.27c7.19-2.71,14-.92,21.43.57l-1.85-8.35c6.26-1.94,11.15.14,15.33,3l2.66-6.8,10.4,5.33c.59-2.8.63-4.78,1.51-6.53a6.44,6.44,0,0,1,3.68-2.54c.54-.16,3,1.47,3,2.24a61.65,61.65,0,0,1-1.51,8.61l6.55-4.25.74.62-4,7.63,6,2.5-.08,0,3.64,1.67v-3.87l7.5,3.1,3.2-7.52c1.22,3.45,6.27.87,7.88,2.45,3.66,3.57,7.2,2.87,11.21.82-4.31-6.14-5.22-12.67-5.44-18.8l20,5.11.41-7.87c-1.15-1.78-2.71-3.48-3.38-5.35-1.48-4.15-8.23-7.29-15.08-6.33l9.25,4.58-1,1.25c-2.56-.95-5.78-1.48-7.49-3s-1.49-3.72-2.14-5.64c2-.14,4.09-.71,5.86-.33,9.37,2,13.29,7.35,15.1,13.87a21.86,21.86,0,0,0,3.07,0c1.31-4.91,2.45-9.85,3.54-14.53-6.65-1.86-13.12-2.3-16.39-4.91-4.42-3.53-8.48-3.8-13.3-2.61v-5.59c-2.2,1-3.31,1.84-4.6,2-1.58.24-3.5-.43-4.94,0-5,1.36-4.41,5.51,1.16,8.48l5.74-2.45,1.54,12.66-17.26-3.77,1.14-1.32-1.12-1-12.14,4.83c-1.74-.61-6-3.05-7.28-2.39-5.17,2.65-7-.33-8.48-1,.35-3.34,1.52-5.77.63-7.67-2.27-4.83,0-7.9,5.6-10.6A58.2,58.2,0,0,0,1193,643c2,1.09,4.29,2,6.45,2.91,1.38-2.88,3.95-5.82,3.73-8.64-.14-1.82-4.35-3.47-6.74-5.2l-1.65.84-.37-4.78,11.33.64-11.07-10.64,18.63-2.4-1.6-2.34,1.09-1.49c3.26,5.62,8,7.52,13.49,4.48,9.07,5.47,6.28,12.92,6.73,19.75l1.33.45,5-4.83,5.24,2.27c-.55-4.08.94-6.54,4.43-6.12l12.33-15.78,9.91,4.11c4.68-6.5-1.61-10.9-4.84-16.65l6.7,1.61,2.25-9.25,4.85,6.78c2.67-1.07,4.73-2.57,5.92-2.26a34,34,0,0,1,10.12,4c2.84,1.91,6.09,2.71,7.35.32,1.56-3,.85-6.55,1.05-9l-11.6-4,1-6.29-13-1.95q-3.4-13.18-16.2-7.78c-9.12-4.14-11.88-9.76-6.65-13.43l2.62,1.21,6.62-3-2.07-4.26,4.09,1.93c2.39-2.63,5.93-4.83,2.55-8.44-.18-.19,2.56-2.62,3.52-2.48,3.38.51,6.57,1.69,10.29,2.74l-1-4.74,13.94,3.31.76-2.56,5.91,7.91,2-.47,1.19-8,4.63-1.33c-.77-3.5,3.11-9-7.58-7.46l-.89-8.07,1.21-.55,6.31,6.09.58-1.18,9.76,1.55-8.25,4.43,12.19,8.18c2.74-3.24,8-5.25,3.38-9.52l-6.12,2.14,4.06-8.83c2.08-.79,5.78-1.34,6.24-2.56.76-2-.09-4.56-1.14-6.65-1.41-2.78-5-5.28-5.24-8-.31-4.05-2.48-5.71-7.34-6.78-2.9-.64-5.45-2.18-8.08-3.4s-5.3-2.81-8.14-4c-4.29-1.74-8.75-3.25-13.14-4.86l2-.79V481l1.3-1.24c-4.23-.9-8.47-1.75-12.66-2.73-.79-.19-1.35-.91-2-1.36-1.56-1-3.09-2.06-4.73-3-.8-.46-2.06-.56-2.68-1.09-3.32-2.85-6.51-5.79-9-8-1-1.5-1.29-2.87-2.3-3.3-3.92-1.64-8.07-3-10.78-3.95l1.35-5.8,3.72.75c-4.7-1.7-2.17-7.55-8.54-7.91-5.18-.29-7.49-2.9-9.21-5.68l14.8,4c1.85-2.63-3.91-6.4,4-6.16l-5.09-7.13h3.07l.3-.88-7.29-2.16,5.5-3.2-9.42-5.89-9.67,9-4.49-1.39,6.31,8.76-1.14,1.12-15.77-9.81h0c1.56-6.89,9.69-13,16.85-12.79l-.61-5.86,9.62-4.21c-4.63-.25-5.46-2-3.69-4.9-6.07-.17-7-4.19-9.44-7-.41-.48.27-1.94,1-2.36a5.62,5.62,0,0,1,3.52-.19c2.83.83,5.52,1.93,8.51,3,1.45-6,1.72-6,11.38-1.89l-6.85,2.54,3.26,7.83-.92.3a24.62,24.62,0,0,0-3.42-4.28c-.83-.7-2.63-.79-4-1.15l0,.06,4.53,7,11.07,2-.51,1.49-13.56-1.24,4,7.19,4.78-5.15c5.83-.73,8.23,3,11.07,6.85l3.44-2.92-3.89-3.91,15.89-5.51-.65-4.9,4.95,3.12-1.06,2.83c3.32,3.29,8.07,5.86,8.13,8.48.14,5.64,3.13,8.14,10.18,8.9a30.4,30.4,0,0,1,4.26,1.07l-2,1.71-11.89-2-.91,2,11.06,7.84.83-1.11,6.62,1,.77-3.61,1.31-.15,5.4,7.83,1.44-1.65c2.87,3.44,4.86,8,9.11,10.15,2.83,1.45,8.87-.5,14.83-1.06l-7-6.9,10-.36-16.92-11h0c-4.37,3-8.92,3.84-12.73,2-1-.47-1.21-1.94-1.54-3-.11-.34.55-.81.71-1l6.4,1.44.75-12.3c-12.41,0-18.7-5.6-24.08-11.54l7.12-7.55c-1.28-1.32-2.44-3.7-4.69-4.61-5.12-2.05-10.93-3.16-16.13-5.12-1.67-.63-3.31-2.83-3.1-4.16.18-1.16,2.79-2.37,4.67-3.07A78.5,78.5,0,0,1,1295,370l13.15,8.81-.51,1.44-10-.36c12.7,5.61,12.7,5.61,13.1,2.15,8.82,3,16.82,7.37,26.44,8.26l.49-1.13,3.81,3v-7c5.27,8.87,10.7.34,16.41,1.06l-6.06-6.52,6,2.34-7.34-9.1,17.84,8,6.57-9.52-2.3.34-4.59-6.69c4.74-.61,1.83-2.69,1.59-4.26l10.92,10.46C1382.54,367.91,1385.21,365.43,1385.13,363ZM360.77,169.08l-1.92,0-8.95-11.63,8.42-1.68-1.45,1.47c1.3,2.73,2.74,5.42,3.82,8.2C361.13,166.58,360.77,167.87,360.77,169.08ZM88.63,376.51a7,7,0,0,1-3.51,2.9,84.45,84.45,0,0,1-8.23,2.4v7.84c-1.19-.57-4.3-1.67-4.14-2.07,1-2.58-3.79-6.34,2.69-7.79l5.13-8.42,1.38.26.73,3.61,4.48-1.88C87.77,374.56,89,375.75,88.63,376.51Zm24.8-16.5,6.86-.58-6.49,7.64-2.43-1.13ZM82.51,482.45l-3.75-5.91,6.16-1c-.51-.83-.68-1.78-1.35-2-1.25-.5-3-1.08-4.17-.77C70,475.34,68.93,470,66,464.9l8.16,1.65c.55-3.75-2.43-5.83-5.57-4.09-4.6,2.55-4.58-.13-5.91-2.63L74.14,461l-.58-2,13-.73.37,1.16-4.28,1.67,3.22.76c-1,2.2-3,4.29-2.61,6.12.47,2.21,2.66,4.66,7.18,2.07.11,1.73.2,3.17.29,4.61l1.87,1,1.18-3.88L95.46,473C94.65,478.51,86.29,478.37,82.51,482.45ZM88.13,444c-5-2.31-12.7-2.9-9-8.95l13.53-4.23,6.23,9.67Zm27-23.17-2.4-5.59-5.28,1.84c-2.05-2.93-4.69-3.91-8.91-1-1.32.92-4.45.45-7,.63C94.1,412.69,92,409,85,403.4A38.57,38.57,0,0,1,91,404c.42.1.06,1.94.06,2.69l9.16,1.34-.06.86,9.22-3.17,1.07.61-6.76,4.42c4.23-1.21,10.56.31,11.62-5,.17-.84,3-1.88,4.64-2,2.57-.14,5.21.46,8.44.81C123.88,409.85,125.85,417.69,115.1,420.83ZM48.7,571.1c3.33-1.63,6.15-5.93,11.75-1.62Zm5,8.39L59.23,572l1.33.65C58.1,574.47,61.65,579,53.68,579.48Zm23.24-48.14,5.24-3.3,2.18,2.25,5.77-2.71C88.47,532.83,84.08,533.84,76.92,531.35Zm12.67,52.28a54.81,54.81,0,0,1-7.49-1.07c2.44-5.27,7.7.42,11-1.68l1,1.33C92.54,582.71,91.05,583.65,89.59,583.63Zm5.52,3.7.52-7.32,8.52-.29c-.27,1.1-.21,2.33-.91,3.26A42.84,42.84,0,0,1,99,587.32Zm-5.8,31.76c.86.91,2.51,1.87,2.33,2.59-.72,2.9-1.27,5.58,1.81,8,.43.35-.73,1.78-1.15,2.7-1.25-.43-3.15-.62-3.63-1.33-1.94-2.9-3.44-6-5.07-8.9Zm-10,77.24c6.87-3.49,10.48-3.19,11.89,0ZM89.4,661c-2.25-3-4.64-5-5.29-7.35-1-3.54-2.92-4.79-7.92-4.36-2.07.18-4.42-1.39-7.19-2.36L87.39,636.8c5.15,4,5.13,4-1.5,7-1.59.73-3,1.71-4.85,2.82l4.85,5.18c7.21-6.48,6.35,3,12.54,2Zm16,21.76c-.51.75-3.67,1.44-4.38,1a28.4,28.4,0,0,1-7.14-5.8c-.46-.55,1.88-2.6,3.33-3.68a17.79,17.79,0,0,1,4-1.69,57.24,57.24,0,0,1,4,6.23C105.73,680,106.08,681.69,105.37,682.73Zm3.16-14.48c-2.25-.52-5.77-.58-6.51-1.66-1.63-2.39-1.85-5.29-3-9.08,4,2.76,7,4.46,9.21,6.61C109.2,665,108.49,666.85,108.53,668.25ZM99,587.34l3.81-1.84,6.32,3.92C101.16,592.6,99.28,592.26,99,587.34Zm5.16-7.66c-.74-2.34-4-4.79,1.42-7.42l5.12,8.56Zm10.49-17.91.89,12.83C106,568.9,105.82,565.35,114.7,561.77Zm-1.2,104.67-2.37-12.22C119,658.31,117.43,662.25,113.5,666.44Zm73.09-230.26c2.22.29,4,2.23,6,3.47l-1,1.17-11.2-1.18C183,438.09,185.08,436,186.59,436.18Zm4.46,11V455c-3.62-4.93-7.11-.78-10.09-.62l.85-8.86,5.66,3.72Zm-10.12,7.36c1,1.52,1.87,3.06,2.94,4.54s2.36,2.9,2.39,4.79l-9.86-4.18C178.3,458.8,173.47,453.77,180.93,454.49Zm4.17,46.36c-1.84.21-4.14.58-6.45.63-.31,0-1.33-1.88-.92-2.31a62.06,62.06,0,0,1,5.88-4.85Zm-12.29-138.5c5.46,4.88,5.46,4.88,0,5.84Zm4.1,168.13-2.2,2.46,6.73.83-7.74,6.43C169.67,534.12,170.33,532.27,176.91,530.48Zm-8.33-1.55a44.82,44.82,0,0,1,1.46,5.2l-3.29.59-1.47-5.49A26.68,26.68,0,0,1,168.57,528.93Zm-10.14,41.59,10.11,4.64-3.72,3.35L157,571.8ZM154,545.76,152.59,544l9.16-4.14C162.06,545.14,159.48,547.09,154,545.76Zm10.87-33.3c1.63,1.49,3.63,2.8-1,4.11-4.86,1.4-4.87,4.28-1.33,6.22,3.8,2.08,2.3,3.05-.3,4.69l-5.18-2.63.42,5a71.32,71.32,0,0,1-7.6-.05c-3.58-.39-3.8-2-3.69-4.6.17-3.94-1.25-7.92-2.15-12.73l11.49,3.63q0,.7.07,1.39Zm-18.21,39.62-5.28-9.6C150.42,544.81,151.16,546,146.64,552.08ZM150,486.52l1.53,1.45,3.51-.63a7.65,7.65,0,0,1-.08,1.13c-.74,3.44-3.66,3.16-7,2.34,2.12-10.23,2.12-10.23,8.92-7.45Zm5.47-99.22L147,386.09l9.71-7.57Zm-12.52-11.36-.33,5.39,5.44-4.31,2.67,3.27c-8.16,3-8.55,2.89-13.66-4ZM137,494.73l5.15-6.57c1.54,1.27,3.67,2.95,5.66,4.71.75.67,1.9,1.86,1.58,2.26a4.78,4.78,0,0,1-3.29,1.62A92.86,92.86,0,0,1,137,494.73Zm-3.36,45.66,9.86,7.13-2,2-14.69-3.86Zm1,11.47-.77,6.81c-2.44-.18-5-.05-7.26-.67-1.16-.32-1.64-2-2.42-3Zm-8.42,28.3c-6-.33-5.41-3.62-6.1-6.18L132,566.66l1.36.72-3.46,5.51,8.93-4.1,1,.73-5.1,5.88c5.4,4.55,9.11-.86,13.94-.59-.41,4-3.92,5.73-8.09,6.4-4.74.76-9.3,1.12-7.46,6.88l-2.6-.68c-.65-1.41-1.19-2.85-2-4.22C127.89,582.08,127.08,580.21,126.21,580.17Zm22.09,81.26c-1.61.11-3.78.44-4.78-.17C138.13,658,133,654.41,127.84,651l1.31-1.19,3.35.8-3.63-5.06c4.35,1.49,7.72,2.76,11.23,3.78a19.55,19.55,0,0,0,4.41.24L142.72,655l3.68-.53c.8,1.77,1.63,3.35,2.19,5A2.73,2.73,0,0,1,148.29,661.42Zm-13.19-15.89,7.7-2.94,1.7,6.9Zm9.57-15.63a74.32,74.32,0,0,1-7.4-4.88c-.32-.27,1.23-2.58,2.32-2.78,3-.54,6.13-.45,10.39-.67Zm24.38,7.27c-2.67,1.81-6.31,2.69-5.08,6.28.16.46-3,1.55-4.63,2.34-.23-1.26-.89-2.58-.55-3.75.29-1,1.77-1.73,2.72-2.59l-1.61-.34L158.22,632l4.76,2.93a8.52,8.52,0,0,0,1.07-.51c1.94-1.32,3.8-2.7,5.87-3.9a5,5,0,0,1,2.3,1.07C171.38,633.53,170.91,635.92,169.06,637.17Zm-13.35-22.29.55-2.43,7.88.9-.57,2.52Zm3.44-13.16c-3.52,2.65-6.56,1.51-9.41-.54-2.63-1.9-5-4-7-5.53,6.53-1.68,11.56-3.42,16.86-4.18,3.59-.52,7.55.34,12.87.68C167,596.06,163,598.83,159.15,601.72ZM164.57,589c-5.55-2.29-5.36-4.64-.45-7.14,3.33,1.65,6.39,3.1,9.34,4.66,2.7,1.43,5.29,3,2,6.14C171.84,591.5,168.05,590.47,164.57,589Zm10.06,14.62c2.28-1.86,4.06-3.37,5.93-4.83,2.12-1.65,5.71-.09,6.74,3.12a10.17,10.17,0,0,1,.07,3.57Zm9.72,12.2-2.68-7.28,11.24,2.22Zm10.78-34.6-1.41-.37,2.1-6.68,1.9,0,2.73,4ZM170.64,724l15.6,7.42C179.18,734.36,171,730.9,170.64,724Zm750.75,31.3c6.14,4.18,6,5.11-.92,6.74Zm290.2-76.17,4.47,9.52c-1.54-.77-3.12-1.51-4.61-2.33s-2.78-1.67-4.16-2.51Zm56.27-102.25c1.57.93,4.6,2.59,7-2l3.61,6.15,1.55,1,1.05-2.24,1.56,3.81-8.17-.49V587l-10.29,3.32-1.49-2.65Zm22.49-45.68,8.84,5.49-1.84,1.39C1294,536.59,1287.19,537.41,1290.35,531.2Zm-8.71-255.14c.55.47-.24,1.8-.42,2.73-1.09-.28-2.76-.33-3.17-.88-1.55-2.09-2.7-4.35-4.65-7.64C1277,272.7,1279.51,274.24,1281.64,276.06Zm-14.45,18.44c1.95-.22,4.2,1,6.33,1.63l-.33,1.52-8.84,1.19-1.06-1C1264.57,296.68,1265.69,294.67,1267.19,294.5Zm-2.87,42.58c0,1.39-.68,2.8-1.08,4.2-.82-.86-1.6-1.74-2.46-2.57-.39-.37-1.11-.58-1.41-1-2.31-3.12-1.52-4.82,2.75-4.52C1263.22,335.06,1264.29,336.06,1264.32,337.09Zm.52-64.49c-5.47-1.32-7.8-3-5.83-6.47C1266.47,265.52,1262.75,269.82,1264.84,272.6Zm-76.9,18.24,3.52,2.74c-2.37,1-4.25,1.84-6.25,2.53a12.17,12.17,0,0,1-6.52.67l2.5-.77-4.63-2.57Zm-11.65,108.89,4.25,3.78,2-.39-2.82-8.23,4.76,3.1,1.2-.23-2.35-6.2c5,2.39,8.69,3.19,13.89.59,3.38-1.7,8.79-1.2,13.34-1.69.4,5.3-3.5,8.63-9.39,9.57-3.57.57-6.75,2.41-10.16,3.58-5.19,1.78-8.48,6.53-14.68,5.53l-4.43-5.67ZM1211,334a12.29,12.29,0,0,0-2.65-1.9,65.8,65.8,0,0,1,7.17-2.44c4.79-1.09,9.7-1.9,14.57-2.83l1,1.33a61.77,61.77,0,0,1-5.53,2.93c-3.83,1.59-7.78,3-11.72,4.48a15.09,15.09,0,0,1-2.87.44C1211,335.28,1211.43,334.45,1211,334Zm-.24,24.89-2.5,6.11-7.19-7.89,1.92-1.45Zm7.61-54.65c-5.19-.34-10.2-2.1-15.9-3.47,4.7-3.66,12.18,3.29,13.3-3.9l7.5,1.68C1221.86,300.25,1219.88,304.29,1218.39,304.2Zm-12.92,20.7,2.77,7.13h-7.72Zm-3.16,13.16,5.08,4.83c-2.46,3-3.87,3.09-9.3-.06Zm-62.79-132.37-5.17-4.29,1.31-1.06,11.53,7.55c-6.45,5.05-13.72,3.11-18.71-4.29Zm10.51,248c8.5-.43,9.49,1.17,6.3,8.45l-11.18,2.34-2.33-4.21,6-2.52,3.57,3.51ZM1138.15,442l-1.37-.56,2.29-6.95,6.14,3.84Zm-18.93-263.17,8.42-4.16,1.39.12-3.55,6.23,3.51-.53.54.87c-2.95.93-5.86,2.4-8.86,2.51-1.08,0-2.38-3.2-3.57-4.94Zm7.61,252.54c-1.39,1.62-3.27,3.82-5.26,6,0,0-1.33-.57-3-1.31Zm-18.47-223.9c6.08.84,9.62,5.69,7.74,11.25l-6.36-1.72v2.56C1106.36,218.4,1106.12,216,1108.36,207.49ZM1111,439.86c-7.61.58-6.27-4.67-10.87-7.22l6.23.59C1107.7,435.19,1104.05,439.47,1111,439.86Zm-11.33,25.85.37.74-9.5,2.84c3.95,4.36-2.08,5.06-4.86,7l-5.68,3.56-7.3-6.79.7-.82,7.75,1.48c-.1-.62-.58-1.61-.24-1.8,7.55-4.26,7.41-11.09,10.58-16.8a4.7,4.7,0,0,1,1.3-1.13,27.57,27.57,0,0,0,3.8,2.2c1,.4,2.71.1,3.45.62,2.37,1.64,4.43,3.51,6.62,5.29-3.1.78-6.21,1.54-9.29,2.34-.77.2-1.48.53-3.6,1.31Zm-12-11.3c-3.14,15-6.15,17.66-17.14,15.7C1070.32,461.52,1077.48,454.75,1087.62,454.41Zm.38-18.85-10,14.05C1076.47,439.57,1077.36,438.23,1088,435.57Zm-15.5,74,1.41.69-3.9,7.09-11.8-4.67,4.75-2.78,1.25,2.83Zm17.3-245.75c3.38-2.8,3.38-2.8,5.25.87l7.06-3.22C1097.68,266.67,1095.06,267.11,1089.8,263.79Zm16.31-40.36-1.61,1.23-9.16-6.46C1103.74,216.24,1102.85,221.44,1106.11,223.43Zm-47.46-72.68c2.49-1.1,13.4,2.51,15.09,5.39l-7.94-4.07,1.78,3.85-10-2Zm-1,23.1c.47.89,1.35,1.77,1.34,2.66-.06,5.78-3.62,7.36-9.57,5a47.33,47.33,0,0,1,4.22-5.94C1054.41,174.72,1056.24,174.41,1057.61,173.85Zm-7.72-21.51c-.58,3.46-3.08,2.5-5.76,1.33-1.77-.77-3.63-1.45-5.44-2.17l-1.29.8-1.18-3.73Zm-12.38,19.85c-2.41,4.3-8,4.74-15.72,2Zm-10,16.46,3.27-7.91,1.79.19,3.31,4.57Zm6.51,7.93-6.52-7.9c.64.34,1.3,1,1.92.95C1035.85,189.4,1036.57,190.08,1034.06,196.58Zm-19.52-50.27,11.21-1.16c-2.26,6.31-2.77,6.48-11.21,3.36Zm-7.51,1.06,7.45,1.15-4.56,4.32-3.52-4.24Zm-3.8,77.53,4.92.4-2.41-4.4a28.84,28.84,0,0,1,4.27,1.36c3.1,1.66,2.55,3.61.59,5.59l-7.75-1.48Zm7.72,283c2.94,4.73.31,7.95-8.93,9.33Zm-3.2,108.25-3,13.19-10.38-4.54C999.34,621.95,997.32,613.77,1007.76,616.2Zm-12.5-396.51,5.17,8.3c-2.42-.15-5.8,0-8.76-.68a6.92,6.92,0,0,1-4.26-3.54c-.44-1.08,1.12-2.59,2-4.33Zm-9-31.44c1.5-.21,3.31.82,5,1.31l-.29,1.31-8.82,1-.83-1.19C983,189.8,984.51,188.49,986.3,188.24Zm-12,74.7,1.57.05,1.64,5.06,17.45-3.76c.33,2,1.59,4.8,1,7.31-.73,2.91-3.59,2.09-5.53.31-2.81-2.57-4.74-2.57-8.21-.09-3.77,2.7-8.92,4.35-15.28,7.3,1.78-2.4,3-3.53,3.47-4.81a18.34,18.34,0,0,0,.52-4.58l2.33.34ZM948.44,640.36l14.29,2.34-4.4-6.62,2.11.55,3.33-2.4,8.22,7.54L961.31,648c-4.08-4.14-4.08-4.14-8.95-2.09Zm2.1,10.92c-.36,1.55-2.65,2.85-4.12,4.26l-1.45-.91v-5.93l1.57-.8C948,649,950.76,650.34,950.54,651.28Zm10.66-362.6c-7.89-9.7-7.89-9.7-4.5-11.83l6,8Zm6.36,151.05-8.8,3,2.85-7.94Zm-3.81,194.34c-4.29-4.92-1.12-9.69,7.81-11l1.61,5.65C968.55,629.43,962.94,629.08,963.75,634.07Zm4.68-141.65c-1.85-2.82-3.46-5-4.67-7.26-.51-1-.16-2.16-.2-3.25,1.31.45,2.7.81,3.92,1.37a23.07,23.07,0,0,1,2.85,1.81h0l4.42,3Zm1.94-7.4c1.78-3.11-2.61-7.94,5.39-8.25,1.59,0,3.19.11,4.76,0,3.25-.27,6.38-.59,4.66,3.29l-6-.84C977.9,482.57,975.92,485.41,970.37,485Zm.55-18.73,2.35-1.49c3.53,2.06,7.17,4,10.49,6.26.69.47.53,2.66.17,2.75-1.66.41-4.45,1-5.18.36A90.77,90.77,0,0,1,970.92,466.29ZM993,598.91l-8.59,3.8C987.06,600.84,989.09,598.3,993,598.91ZM967.06,254.72l1.13,4.75,4.65-.83-3.25,7.65-1.78-.06c-1.26-3.31-2.58-6.61-3.65-10C964.07,256,965.7,255.43,967.06,254.72ZM930.24,108.52l2-4.94c10.31-1.61,10.31-1.61,13.16,6.31,1.3,3.61,5.24,4.81,12.48,3.38l-1.58,3.91,8.19,2.53-.63,1.27c-5-1.07-11.52,1.69-15-3.76-.42-.67-2.07-1.15-3.24-1.29-4-.46-7.1-1.44-8.93-4.53C935.92,110.14,932.85,109.62,930.24,108.52Zm4.16,292.83c2.64,4,2,6.64-2.72,8.1l-4.35-2Zm-19-10.79-.92,1.3,3.06,3c-7,3.23-6.38-1.93-9.09-4.7Zm-12,95.92,2.15-5.34c3.61,4.46,3.61,4.46-5,10.95l-5.08-5.2ZM882,602l6.91,6.32-6.51,4.55-2.85-10.07Zm-2.47-4.78c-6,1.83-9.56.85-12.59-3.37l1.31-1a16.53,16.53,0,0,0,1,1.73,11.71,11.71,0,0,0,1.13,1.2,22.41,22.41,0,0,1,4.37-.11A35,35,0,0,1,879.49,597.19ZM852,614.63l6.8-2.26L851,608c3.43-1.22,6-1.92,8.21-2.95,6.07-2.78,10.37-.51,14.24,2.63,3.19,2.59,2.94,9.22-.26,11.72-4,3.11-7.67,6.59-12.33,9-2.69,1.42-7.08,1.49-10.64,1.32-.86,0-1.68-3.39-2.08-5.27-.65-3.06,1.47-3.42,5.07-2.79,2.35.41,4.93.08,7.41.08l1.22-1.64Zm24.6,23.44.71,1.9c-4.15,3.05-9.91,2.1-15,2.8l-.53-1.8ZM874.4,552.5a24.84,24.84,0,0,1-3.82.07c-3.64-.48-7.25-1.11-10.87-1.67l.19-1.22c4.12,0,8.26-.15,12.35.13C873.07,549.87,873.69,551.56,874.4,552.5Zm-14.48-5.19,3.31-5.89,8.27,3.81.11,1.28Zm.53-165.91,8.56,2.93c-3.57,4.57-4.09,8.7,3.57,12.33-8.26.27-9.24-2.09-11-6.07C860.27,387.48,860.39,385,860.44,381.41Zm-6.07-165.69c1.54,1.81,3.63,3.5,3.23,3.92-1.07,1.13-3.2,1.71-4.91,2.51l-1.17-1.22Zm-5,308.13,11.76,1.81L854,544.82l-3.84-10C839.95,532.93,849,527.44,849.35,523.85Zm-2.57,129.39c2.76-2.31,6.08-4.25,9-6.26l3.49,5.17c3.68-2,4.58-7.38,10-4.77,5,2.41,10.38,5.36,10.07,10.11h-13c0,.38,0,.75,0,1.13,2.29,0,4.76-.36,6.77.19.72.2.31,2.61.42,4.05-7.48-.3-12.31-5.49-18.68-2.77,11.46,4.66,17.72,11.81,18.81,21.92,5.08-1.45,7.56,0,8.23,4.59-3.27.52-6.71.87-9.94,1.69-1.27.32-2.26,1.63-3,2.64a15.93,15.93,0,0,0-1.44,3.49c-3.19,7.53-10.58,11.73-18.43,13.33-2.16,3.88-3.45,6.69-5.26,9.32a49,49,0,0,1-6.93,8.48,12,12,0,0,1-6.93,3.11,40.88,40.88,0,0,1-23-6.51,56.77,56.77,0,0,0-5.76-2.87c-2.47-2.14-4.43-4.9-7.52-6.27-5.85-2.61-7.22-5.46-3.19-9.75,6.34,2.19,5.92-.94,5.9-5l-12,6.16-1.17-.2c1.7-2.58,2.64-5.7,5.23-7.66,13.86-10.47,28.06-20.7,42.34-30.87,1.65-1.17,4.5-1.43,7.6-2.35l-.81,6.23c1.89-3.81,3.69-7.63,5.69-11.41A15.5,15.5,0,0,1,846.77,653.24Zm-23,88.16c-3.53.55-6.87,1.79-10.81,2.87l-2.34-2.59c-4,1.87-7.89,3.1-2.54,6.77,1.33.92.64,3.43,1,6.34l4-4.68,9,3.47c-.14,2.72-2,3.8-8.06,2.91-4.09-.6-7.7-.45-9.54,2.28-.85,1.27-.3,4.14,1.08,5,7.09,4.24,7,7.3-2.21,12.07l-3.86-18.48-2.25.23c1.15,5.83,2.5,11.65,3.32,17.51.19,1.37-1.22,2.94-2.2,4.3s-2.55,2.2-3.27,3.47c-2.79,4.92-7.81,5.68-14.28,2.9-2.66-1.14-6.71-.54-10.63-.77l10.1-42.5,5,3.92,3.09-3.84,9.31,4.37.83-.9-4.36-2.72,2.49-.46,2.24-10H782.32c-2.11-6.79-1-7.94,9-6.85,13,1.42,26,3.21,38.89,5a4.09,4.09,0,0,1,2.88,2C833.94,736,828,740.73,823.73,741.4Zm.84,44.26,5.2-6.46C833.23,782.73,832,784.58,824.57,785.67Zm-83.74-13.29-2.78,2.85c-.47-.31-1-.51-1-.71.09-12.32,0-24.64.47-37,.24-6,6.78-9.45,12.59-12.54,4.85-2.58,13.93,3.47,13.1,9.09a180.87,180.87,0,0,1-5.1,22.52c-1.95,6.91-4.61,13.71-6.75,20Zm9.54,10.9-4.93,14.29-2-.31a85,85,0,0,1-2.74-9.28,78,78,0,0,1-.64-9.38ZM731,660.12l3.22-4.16-3.52-4.57,1.51-.83,8.58,3.76-2.66-5.13,5.88,2.16,2.44-5.67c5.75,8.9,6.84,18.14.24,27.79l2.6.8,7.62-3.92c2,2.87,4.29,6,6.22,9.33.26.45-1.46,1.52-2.26,2.31,3.07,3,3.07,3,.41,6.38-5.48-1.69-8.24-5.38-6.9-9.24-1.32.29-3.06.28-3.88.91-3.49,2.7-2.46,7.57-8.13,9.29l2,3-6.9,3.73-5.63-29.75,4.18-3.33Zm-34.57,75.3,6.63-7.22,10.36,42.39-7.7,4.74c-2.12-1.83-4.26-4.27-7.14-6-8.5-5.21-17.28-10.19-26-15.2-5.71-3.28-11.95-6.33-8.22-13.13l-4.29,3.39c-2.24-3-5-5.76-6.52-8.9-.88-1.81-.29-4.26.54-6.22s2.77-3.57,4.22-5.35c-2.43,1.47-4.83,3-7.3,4.39-1.12.64-2.52,1.68-3.57,1.55s-2-1.4-2.84-2.27c-.28-.31.32-1.25.09-1.35-10.2-4.28.11-4.8,2.3-6.73,3.27-2.9,6.64-5.74,10.59-9.14,4.77,4.27-4.74,6.72-4.32,10.94l5.54-1.87.51,3,3.26-2.25-2.29,8.95,6.2-2.49,2,3.69,11.67-4.8c-3.82-5.63-1-12,6.91-16,.57.82,1.74,2.2,1.57,2.29-3.44,1.94,1.55,4.61-1.13,6.53,1.17.54,2.32,1.47,3.51,1.49s2-1.1,3.18-1.53c2.51-.94,5.1-1.75,7.66-2.61.91,2.61,2.69,5.28,2.42,7.82-.17,1.55-3.18,3.36-5.49,4.26-1.27.49-2.58.94-3.91,1.36ZM561.86,617.19c3.33,3,6.48,5,8.38,7.56,8.56,11.51,16.77,23.15,25.1,34.75h-3.4l-2.58-4.79-3,3.08C565,650.5,554.92,634.52,561.86,617.19Zm5.37,53.7-5.82,6.56c-3.89-4.36,1.5-5.38,3.77-7.42ZM645.1,529l-2.26,1.33c-1.63-1.15-4.42-2.21-4.62-3.48-.31-2,1.14-4.11,1.85-6.17l2.26.71-1.62,2.37Zm30-4.48c4.25,5.83,2.65,7.35-8.23,7.66Zm-4.3-12.75,7.78-15.09C682,504.26,676.12,507.91,670.78,511.72Zm15.43,45.37c-13.9-2-21.94-10.66-17.72-19.64C681.73,541.34,688.11,548.53,686.21,557.09ZM658.8,507.52l-1.07-.79,5.56-5.56,5.26,3.41Zm6.74,11.77-6.67,6.14-4-4.72ZM700.26,699.6l-4.35,5.31c-2.67-.33-6.41,0-7.76-1.14-2.68-2.3-4-5.44,1.25-7.95L682,693.88l10.31-3,1.07,2.42,5.71-3.8,2.85,6-4.89.59C698.13,697.28,695.6,700.28,700.26,699.6Zm3.43,10.77c-2.34.2-4.82.87-7,.51-3.87-.65-3.41-2.71-1.76-4.76.32-.39.65-.77,1-1.16,1.23.23,2.88.19,3.57.77A40.17,40.17,0,0,1,703.68,710.37Zm-19.87-59.68c-3.78.75-7.24,2.35-11.12,3.66,5.9,6.37,7.28,6.6,15.4,3.93.8-.26,2.2.44,5.06,1.09-3.31,1-4.88,1.36-6.23,2a38.56,38.56,0,0,0-4.08,2.47l8.29,3.14c-2,2.08-4.52,3.85-5.31,6-.58,1.55,1.19,3.58,2.13,6-7.13.24-9.1-6.42-15.63-8.19L669.52,674c-7.79-2.83-8.1-4.15-2.84-8.8.9-.8.65-2.31,1.07-4.09l-8.42-.33-.49,7.5-7.28-4.37c-2.34,3.77-11.22,4.92-6.94,12-5-.41-9.14-1-13.32-1a25.29,25.29,0,0,0-6.89,1.32c-.24.07,0,2.29.49,2.39,1.94.4,4.11.17,6,.58,1,.21,1.67,1.25,2.49,1.92a34.77,34.77,0,0,0-4.81,4.24,12.53,12.53,0,0,0-2.45,5.13c-.51,2.46-.42,5-.65,8.49-5-4.72-4-10.64,1.6-15.64-6.63-.08-9.4-2.37-9.81-7.22-.33-3.89-2.37-7.75-4.05-11.52-2.39-5.35-1.42-10.33,2.14-15.17a140.15,140.15,0,0,0,24-53.64c1.15-5.21,4.68-10.15,7.39-15.77,10.72,4.11,22.55,6.26,27.18,16.19,2.62,5.61,7.43,10.75,11.87,15.81,3.72,4.24,6.5,8.36,6.24,13.66-.23,4.73.74,9.52,1.54,14.25C695,648.21,694.67,648.53,683.81,650.69Zm-18.63,40.84a40.81,40.81,0,0,1-3.43,4.28c-.16.16-2-.58-3.08-.9l4.12-4.5Zm-19.37-5.09c-4.07-.39-7.55-5.63-12.29-.34v-5C638.46,679.32,645,682.08,645.8,686.44ZM597.73,569.87c7.9,5,8,5.29,3.44,9.21C599.62,576,591.23,575.05,597.73,569.87ZM594,551.15l-2.66.44,2.91-6.64c4.44,3.66,9.1,5.87,4.33,9.38Zm48.79-.11c-7.46,2.52-15,4.86-22.59,7.21-.17.05-.6-.36-1.68-1,7.35-3.14,14.31-6.15,21.36-9a3.83,3.83,0,0,1,2.76.33C643.08,549.25,643.21,550.89,642.77,551Zm.28,2.14v18.08L623.84,563l.44-2.07Zm-21.82,16.25A185.66,185.66,0,0,1,639.88,577c1.36.64,2.09,3.13,1.63,4.5-1,3-3,5.85-5,9.59l-19.23-11.47,3.48-4.28c-7.77-1-15.81-1-19.9-8.41,4.88.82,8.74,1.58,12.67,2.08C616.06,569.3,619,568.69,621.23,569.44Zm-15,27.92c2-2.27,1.07-6.69-3.48-9.31-2-1.13-2.84-3.26-4.3-5l18.05,2,.19-1.25a5.73,5.73,0,0,1,1.16.36c17.47,10.23,17.47,10.23,11.71,25.86-4.92,13.34-16.2,29.39-26.93,37.88-13.54-12.62-21.87-26.67-26-41.58,3.54-3.22,6.06,5.15,9.13-.92L599,616.29l1.71-.22V605.82l3.81,1.77c.27-.26.8-.58.73-.72C603.35,603.56,603.09,600.89,606.22,597.36Zm-.65,101H595.28C598.51,694.14,601.33,694,605.57,698.39Zm7,10.35c5.86,9.89,5.86,9.89-3.86,16.42-2.94-5.44-8.2-10.2-3.16-16.42Zm-8.74,12.47,4.5,9.71-3.27.56-4.17-9.58Zm17.47,36.85c-20.19,1.66-29.76-2.71-36.13-15Zm-9.75-23.16c-2.26-2.42-.13-9,4.24-11.56,4,4.12,10.89,6.68,8.29,13.32a27.49,27.49,0,0,1,4.6-.94c.81,0,2.2.54,2.33,1s-.6,1.46-1.32,1.78C625.39,740.42,614.66,738.23,611.55,734.91Zm35.32-169.63c0-3.63,0-7.26,0-10.89l3.21-.29,10.3,23.08C647.88,574.64,646.95,573.77,646.87,565.27Zm1.27-317.09,5.86-5.14c.35,1.52,1.44,3.27.75,3.83-1.47,1.19-3.87,1.77-5.89,2.61Zm7.75-38.72-2.32-.08-1.25-4.15-8.22.46,1.39-6.83,6,3.31.61-4.13,8.11,2.42-3.37.54Zm-15.63.14c-1.45-.75-3.69-1.28-4.14-2.26-1.46-3.15-2.26-6.46-3.53-10.38,2.77,1.17,7.16,1.93,8.22,3.74C642.11,202.95,640.63,206.05,640.27,209.61Zm-1,335.3c-8.57,3.26-15.35,6-22.34,8.35-1.27.43-3.43-.56-5.18-.9l.57-1.54a14.21,14.21,0,0,0,3.26.68,8.71,8.71,0,0,0,3.83-.82c.39-.22,0-2-.76-2.37-5.61-2.86-1.23-5.6.77-7.61,1-1,5.33-1,7.72-.39C630.83,541.2,634.16,542.92,639.27,544.91ZM611,545.5c-11.81-1.83-15.11-9-20.2-15l1.08-1.12,25.53,7.95Zm-20.21,45.41-3-2.93-1.93.37,1.36,8-10.38,6.33-2-.89,2.56-6.6-6.4-8.78c11.14.21,15-2.17,16.86-9.11C597.1,581.4,597.93,585.05,590.78,590.91ZM577.86,335.54l-10.92-8.71,1.88-1.24,11,8.72Zm-7.62,206.33c1.4-.08,3,1.61,5,2.81l-12.87.47-.6-1.32C564.6,543.12,567.37,542,570.25,541.86Zm22.35,153.88c-.56,2.12-6.42,5.73-9.82,4.93-1.47-.35-2.48-1.73-3.7-2.65,1.76-.76,3.42-1.9,5.32-2.19C586.92,695.46,589.63,695.75,592.59,695.75Zm-21.87,16.39c3.93-7.11,3.93-7.11,8.75-8.67l-.35,5.12c9.41-1,9.81,4.35,11.49,8.57,9.26.21,2.89,4.82,5.08,6.52l6.47,5.28-1.58,1.78c-4.82-1.6-9.66-3.16-14.44-4.82-3.24-1.12-6.31-2.52-9.6-3.55C572.41,721.06,569,715.29,570.73,712.14Zm14.58,35.79.37,5.08,7.13,2.06-1.18,2c-2.66-.9-6.16-1.32-7.76-2.83s-1.18-4-1.65-6.14Zm4.46,10.42,3.51,4c2.6-3.32,6.08-4.93,11.37-2.2v4c7.92-4.38,13.77-4.14,19.84.59,5.45-2.67,6.82-2.29,9.88,2.33a6.13,6.13,0,0,0,3.36,1.81c2.53.59,5.75.32,7.72,1.37Q665.38,781,684.77,792.2c1.86,1.08,2.06,3.63,3.27,5.4a33.24,33.24,0,0,0,3.56,4.09c1.42,1.47,3,2.88,4.46,4.31L689,809.42l-.72-5.5A40.26,40.26,0,0,0,684,806.6c-1,.87-2.58,2-2.45,3A98.6,98.6,0,0,0,684,819.72l4.55-4.42,4.11,3.27,2.24-3.23c9.4,7,7.33,16.23,6.31,23.78-1.15,8.47,3.54,15.92,2.94,24-.15,2,.33,4,.61,7C656.41,837.61,620,799.74,587.59,759.64Zm113.09-183c-2.18,3.91-4.19,7.87-6.37,12-16.54-11-32.72-27.92-30.92-32.26a5.91,5.91,0,0,1,1.77,0q15.38,5.53,30.71,11.14C706.31,569.31,706.24,569.32,702.86,575.39Zm1.88-16.18c-.17-2.26,1.17-4.57,1.94-7.07l4.12,1,2-4c4.86,1.57,5,4.6,3.85,7.66a12.35,12.35,0,0,1-3.7,4.44,27.64,27.64,0,0,1-4.65,2.6C707.05,562.29,704.86,560.79,704.74,559.21Zm8.1-10.11h0c-5.5.08-10.29.71-11,5.88-.1.69-3,1.17-4.67,1.74l-1.39,3.3c-1.64-.63-4.64-1.25-4.64-1.88,0-1.37,1.52-2.74,2.42-4.11-4.2-4.21-8.5-8.36-12.54-12.65a5.67,5.67,0,0,1-1.45-5.26l4.07,1.7,1.58-4.61c4.54.73,4.41,6.78,10.66,5.14,4-1,7.63-2.72,10.93-3.93l-.73,3.2c5.69-2.64,5.87-3.66,1.89-6.5l7.84-10.53,13.65,15.51.65-4.92,1-.37c.63,1.06,2.15,2.39,1.74,3.14A84.3,84.3,0,0,1,726,544.18a71.83,71.83,0,0,1-5.95,6.15l-2.63-2.86ZM722.25,498l4.36,2.05c-1.94,2.38-4.35,4.33-5.11,6.58-.57,1.71,1,3.8,1.76,6.36H717l2.61,2.88c-6.45,2.05-7.69,1.33-8.87-5.13l1.67.25c.7-1.37,1.88-2.72,2-4.12.18-2.16.3-3,3.85-7.2l4.87,2.09Zm-21.11-8.27,1.7-3.1c2.46,1,4.35,1.7,6,2.58s3.17,2.06,4.74,3.1l-2.3,1.78-4.9-2.79,1.09-1.31Zm9-237.1c-2.69,1.17-5.4,2.32-8.07,3.51-1.34.6-2.61,1.29-3.92,1.94a41.26,41.26,0,0,0,3.73,2c1.74.75,3.62,1.34,5.7,2.09-5.15,2.2-5.74,2.1-14.21-2,2.57-7.38,7.75-10.12,15.75-8.34l4.07-8.54,6.26,1.93C719,253,718.83,253.12,710.12,252.61ZM696.82,484.06c.91.12,2.33,2.16,2.05,2.39-1.28,1.08-3.12,2.62-4.65,2.55-3-.13-6-1.21-9.54-2C688.09,483.46,692.45,483.48,696.82,484.06Zm-9.45,23.45,1.85,6.27c1.62,3,3.86,5.9,4.66,9,.64,2.49.87,5.82-4.32,6.23l-4.11-9.59,1.43-4.79-3.1,1.86C684,513.17,681.11,509.77,687.36,507.51Zm34.78,61.21c5.15-6.17,10.42-12.29,15.66-18.43l1.7.63L733,579.63c-4.32-3.38-7.78-6-11-8.74C721.52,570.49,721.68,569.28,722.15,568.72Zm26.39-345.19-2.35,8.5L741,226.5ZM738.78,171l14.08,2v8.78l-2.13.63Zm4.37,465.83-7.32-1,2.72-9.12C742.82,627.42,744.52,630.7,743.15,636.78ZM760,519.39l8.13,2.92-2.93-8.5,6.91-3.08,5,7.38L760.3,529.7C753.35,526.45,764.2,522.62,760,519.39Zm33.1,199a22.51,22.51,0,0,1-2.15,3.9c-1.78,2.17-7.06,2.17-8.68.11-2-2.6-1.16-8.84,1.82-12.19a10.55,10.55,0,0,1,2.25.62c2,1.11,4,2.32,5.75,3.36l-.63,4.07Zm8.13.91,7.87,6.55-16.82-1.76C795.57,721.49,794.51,716.6,801.25,719.3Zm6.4-73.53c.3-.23.47-.54.76-.77,1.66-1.31,15.86-.07,18.34,1.87,3.33,2.6,3.32,5.44-.41,7.9-14.06,9.29-28.18,18.53-43.3,28.47.32-2.22.14-3.78.8-5.11C789.61,666.49,795.64,654.94,807.64,645.77Zm-1.47-9c-.29.27-3.1-.88-5.86-1.7l11.33-8.43,2.53,1.4C811.56,631,809.07,634,806.17,636.76Zm8.81,5-1.51-1.34,4.67-5.21c.8,1.56,2.27,3.18,2,4.65C820,640.6,816.81,641.1,815,641.73Zm-13.71-17.51c-2.08-.18-3.73-3-5.67-4.78l14.88-4,7,7.92C811.22,623.77,806.15,624.64,801.27,624.22Zm-34.19-15.47c-.26-5.6.83-6.46,11-8.21l-3.77,6c3.9,1.12,7.89,1.91,11.3,3.41a6.67,6.67,0,0,1,3.57,4.29c.49,2.51-1.35,5.29,3.72,6.72.82.23-.25,4.08-1,6.23-2.53-6.32-7.11-8.17-10.73-6.49l-11-4.22c3.2-1.06,6-1.35,7-2.5C778.34,612.61,769.54,608.14,767.08,608.75Zm17.52-11-1.16,3.75a31.56,31.56,0,0,0-2-3.27c-1.72-2.14-3.61-4.2-5.3-6.35a24.33,24.33,0,0,1-2.29-3.65c-.92-1.73-1.72-3.49-3-6.14l7.61,3.15,1.87-6.54,2,.19c1.6,2.42,8.7,4.33.65,7.74-.7.29-.29,3.64,1,4.47,4,2.65,8.55,4.78,13.27,7.31l-3.77,2.34h0Zm-11.77-48.44c6.08-3,7.26-10.69,17.9-10.63,4.73,0,7,1.33,3.95,4.55a152.84,152.84,0,0,1-14.31,13.4c-1.42,1.15-4.95.89-9.18,1.53l8.34-4.33Zm17.39-58.16c-.76.89-6,1.1-6.41.53-1.33-1.81-1.37-4.14-1.91-6.27l3-.65C783.94,488.42,794.45,486.14,790.22,491.13Zm1.32,26c1.31,7.39-8.23,10.29-10.34,13.38l-5-3.22Zm1.09,15.78,9.65-10.52C803.32,528.78,799,531.36,792.62,532.86Zm15.19,66.84-5.61,6.59-8.72-5.55Zm2-74.76c-1.05-3.43-3.69-7.11,1.88-10.28,5,2.72,6.65,6.9,4,10.28a4.5,4.5,0,0,1-3,1.49C811.69,526.43,810,525.6,809.8,524.94Zm.9-48.92-1.85-.46c.3-2.88-1-6.2,5.2-7.47Zm-8.78-15.21a14.88,14.88,0,0,1-1-2.75l8.55-1.13.61,2.75C807.37,460.1,804.66,460.57,801.91,460.8Zm3.12,7.49c1.15,4.95.67,5.25-7.6,4.88Zm-6.9,34.52c-.48,6.14-2.36,6.65-11.12,3.34C787.3,499.31,793.19,502.07,798.13,502.81Zm-4.47-37.07c-.2,1.17-1.46,2.25-2.23,3.37a54.35,54.35,0,0,1-5.15-2.35c-.71-.41-.65-1.62-1.36-1.93-2.1-.9-6.29-1.52-6.3-2.27,0-2.19,1.6-4.38,2.66-6.77C793,457.74,794.77,459.2,793.66,465.75Zm-2.19-29.14c-1.7,2.58-1.91,6.11-6.86,4.31a6.59,6.59,0,0,1-4.61-7.75Zm-6.62-10.46c.68-3.36,2.56-6.6,4.14-9.85a10.21,10.21,0,0,1,1.66-1.91h2.09l1.11,14.06c-.5.13-.93.37-1.18.29C789.9,427.89,784.73,426.72,784.85,426.15ZM780,444.31c.76-.18,1.6-.56,1.85-.41,1.76,1.06,3.76,2.06,5,3.41,2.34,2.57,4.21,5.38,6.22,8-6.73,1.67-16-2.05-16-7.28l4.08.58Zm-4.76-25.42-3,.34-5.73-7.13,1.51-1.18c1.73,4.4,8.19-1.22,9.46,3C778,415.41,776.1,417.23,775.28,418.89ZM760.7,613.1l1.21.53-.8,11.23c2.06,1.43,4.63,2.46,4.53,3.31-.19,1.56-2,3-3.78,5.48L753,619.19l2.62.58Zm-9.91,86.1,6.8-3.33,3.84,4.63L753.15,703Zm2.24,3.9c-.85,1.27-1.37,2.8-2.68,3.7-3.6,2.45-7.56,4.62-11.45,6.94-3.18-4.38-1.77-9.4,3.42-12.38l4,3.55ZM765.1,821.53c.46-.46,2-.3,3.11-.43,0,.84.45,2-.11,2.45a54.61,54.61,0,0,1-5.56,3.73l-1.49-.74A50.79,50.79,0,0,1,765.1,821.53Zm-.3-176.91,7-1.49-5.24-2.06c9-7.24,17.72-7.76,29.72-1.45l.4-3.05,5.1,3.34-22.19,20.43c-1.34-3-3-5.55-3.54-8.21C775,647,772.39,645.24,764.8,644.62ZM779.44,801l2.34,1.93L772.56,807C770.48,801.52,772,800.22,779.44,801Zm-7.72,51.22L774,856.5l5.65-.5.73,4.74C771.22,860.74,767.9,857.83,771.72,852.24ZM777.91,812v-5.65l1.88-.27,4.06,3.63c-3.47,5.06-4.79,5.36-8.8,1.78Zm2.67-16.92.66-1.34c3.72.1,8.78-2.91,9.26,4.17Zm62.57-16.48c-7.66,2.53-8.31,2.24-10.13-3.21Zm3.38-7.68A21.93,21.93,0,0,1,848,774c-1.69-.13-3.71.13-5-.46-6.86-3.11-7.5-8.61-1.5-12.54a6.18,6.18,0,0,1,4-.64,4,4,0,0,1,2.61,2.41c.22,1.31-.53,2.72-.87,4.09l-4.69-1.2C844.4,768.09,845.57,769.46,846.52,770.92Zm-1.9,20.65c2.28-.34,5.31.61,7.39,1.64,1,.51,1.35,3.52.89,3.68A18.28,18.28,0,0,1,846,798c-3.75-.28-7.41-1.16-11.11-1.79l-.24-1.31C837.94,793.71,841.13,792.08,844.62,791.56Zm7.4-48.27,2.24-7.65,2.22.22,6.44,8.39Zm-11-107.2-2.69-1.54-10.24,3.26-3.81-3.71-6.17,1c1.13-5,4.34-7.59,11.93-6.24,1.66.3,3.87-1.08,7.11-2.09C844.36,628.36,845.84,630.74,841.07,636.09Zm1.68-19.26c.79.51.31,2.08.42,3.16l-9.33-.82.19-1.89A7,7,0,0,1,842.75,616.83Zm-7.86-87c.2,0,.51.8.76,1.23L834,529.89ZM833,530l-6.78,6.9,1.11,1.06,9.48-3c-2.73,6.05-9.2,6.45-22.73,1.57,3.06-2,5.35-4.43,8.44-5.34S829.36,530.14,833,530ZM819.39,244.33c.52-2.91,6.13-5.15.33-7.59l3-3.55C827.55,238.35,826.72,241,819.39,244.33Zm.92-19.42,1.77,6.69-11-1.12ZM812.44,78.76c-2,3.49-2.39,7.35,2.67,10l-17.8-5.54Zm-3,15.25c-5.27-.05-7-2.24-7.56-5.88C808.29,87.07,809.28,90,809.44,94Zm-5.26,1.07,4.39,3.56-11.49,6.47C792,100.87,792,100.87,804.19,95.09ZM767,233l-2.31,7-11,1.25-.25,1.21,18.68,2c-8.67-5.56,1.05-9.54,1.07-13.76,0-.45,3.9-.9,6-1.35l.73,1.08,5.47-5.67,1.82.92.49,3.36,3.74-1.61,1.83,9.91,2.38-1.15c2.08,1.1,4.63,1.93,6.12,3.36,2.24,2.15,2.33,4.29-.58,6.79a18.78,18.78,0,0,1-14.05,5c-2-.05-4.22,3.19-6.35,4.94-2-.59-5-2.35-7.55-2-3,.4-5.44,2.73-8.32,4-3.75,1.63-7.33,1.43-11.42-1.4l7-1.35.09-.82-10.13-.8c0-6.51-.14-13.65,0-20.87Zm-8.91-7.39,5.51,3.25-13.15,4q0-1.62.1-3.25c.1-2.66,1.65-5.19,6.57-4.62l3.2-3.65-7.07-.9.25-.75,8.36-1.58C765,222.76,764.05,224.83,758.09,225.64Zm-8.43-122.83,8.9-1.28c-1.07,1.49-2.78,2.8-2.72,4.08,0,1.12,2.06,2.2,3.35,3.44-4.43,1.84-9.16,4.18-14.34,5.72-1.54.46-4.31-1.31-6.1-2.62C747.16,112.39,749.54,109.06,749.66,102.81ZM739.34,253c-2.83-1.72-5.83-3.34-8.45-5.25-1-.72-1.76-2.18-1.49-3.13a72.72,72.72,0,0,1,3.47-8.66c.71-1.62,1.61-3.21,2.42-4.81h1.88l1.46,8.57C743.93,241,744.75,246.36,739.34,253ZM729.77,113l2.29,6.22,5.31-.24c-3.51,4.08-13.1-1.66-12.15,5.9l-8.53-4.34,4.71-5.41,1.92,2.2Zm-18.24,21.3,1.33-1c2,1.63,4.36,3.14,5.79,5,.26.34-3.17,2.2-4.89,3.36l-1.3-.78,2.25-3.94ZM719.76,68a61.82,61.82,0,0,1,6.23.66c-.59.91-1,2.75-2.13,3a14.33,14.33,0,0,1-6.1-.54c-.71-.19-.86-1.55-1.27-2.37A15.75,15.75,0,0,1,719.76,68Zm3.29,9.37,1.78,2.17-10.4,3.78-1-1.1Zm-11.11,9.29c.81-.07,2,2.24,3.23,3.7l-12.53-.74-.61-.88A74.56,74.56,0,0,1,711.94,86.69Zm-2.26,131.9,1.42-4.88,4.5,9.1-9.17.49-.16,1.29c3.33.19,6.79.86,10,.44,3-.39,5.69-1.94,8.51-3l1,1.57c-5,1.68-11.36,2.5-14.57,5.28-3.38,2.93-3.73,7.75-5.55,12.08-8.49,4.21-14.2,10.62-15.82,19.19l-1.93-.52-1.38-11.46-.94,0c0,3.13-.06,6.25,0,9.38.07,2.7-.39,4.28-5.29,4.31-4.31,0-9.46.93-12.69,2.85-5,3-7.54,1.6-10.65-1.37l8.15-5.39c0-3.31,1.66-8.05-7.72-8.37v-6.18c4.09.64,7.75.64,6.79-3.91l4.68,1.77c.31-2.57,1.07-4.91.72-7.14s-1.85-4.09-3-6.51l11.12-4.1-3.75,4.7,7.6-1.18,2.74,4.6,8-8.07-1.79-1.11-3.37,1.69-1.34-.58,3.15-3.68v-9.44l3.87,1.2,3.37-9.09,2.11.38c-1,2.07,3,4.81-2.22,6.47-.29.09.38,2.33,1,3.42,2.08,3.44.66,6.26-2.78,9.2,1.63.11,3.63.68,4.32.21C701.79,220.07,704.24,217,709.68,218.6Zm-28.1-33.4,9.32-2.42,7.29,6.78Zm17.88-65.64c-.19,1.43-1.24,2.8-2,4.39L695,121.8l-5.33,8.11c.12,1.82.26,3.89.41,6.11l6.7-2.34,1.38,1.46-10.3,7-8.42-7.59c4.55-3.23.94-6.06-2.88-10.13,3.23,0,5.5.3,7.55-.08,2.5-.46,5.28-1.13,7-2.38s2.14-3.24,3.59-5.66l-8.13.6,3.22-2.83-5-3.35c2.88-2.59,10.93-1.76,8.76-7.72l2.41.22c.13,1.5,1.17,3.55.22,4.41-4,3.59-4.59,6.17,2.1,8.26C699.26,116.21,699.62,118.33,699.46,119.55Zm-17.79-82c1.08-.86,2.08-2.27,3.29-2.38,1.63-.15,3.51.65,5.1,1.28.32.13-.15,1.33-.26,2-1.48-.19-2.95-.4-4.43-.57C684.14,37.81,682.9,37.71,681.67,37.59Zm4.21-13.81,7.5,3.4-3.94,1.25,8.83,3.83-.46.7-7.66-2.79,3.72,4.57c-3.83-.83-7.78-.92-10.27-2.37C677.5,28.84,682.94,26.43,685.88,23.78Zm-18.56,9.08,7,2.24,3.36-1.85,3.94,4.34h0c-6,3.44-9.94-.39-14.35-2.27C666.76,35.12,667.24,33.73,667.32,32.86Zm6.86,74.54L668.25,109l.68-9.49C674.29,98.8,674.81,99.42,674.18,107.4Zm-40.87,27.08c3.79-.44,6.43-3.6,11.5-1.65,3.54,1.36,10.66-4.94,9.3-8.3l-2.79,3-.67-5,8.28-.95q0-.34,0-.67l-6.24-.71c4.39-2.26,7.26-5.52,12-.82,1.23,1.23,5,1.08,8.66,1.76l.76,2.25-5.68,3.9,1.16,1.18,5.36-.73c.08.22.29.61.2.65-2.44,1.12-4.91,2.21-7.21,3.23l-2.87-6.54c-2.54,1.74-4.24,2.85-5.84,4-.75.56-2,1.66-1.86,1.83,4.83,4.68-1.81,7-4.14,10.37l-4.47-1.06c-1.21,4.71-7.12,5.13-10.51,4.35-3.57-.82-6.16-4.27-8.66-6.85C629.26,137.44,631.79,134.65,633.31,134.48Zm-2,235.15,1.7,6.16-10.38-1.51Zm-6.6,135.91c.24-.59,2.2-.81,3.37-1.21,5.57,8.67,5.12,15.91-1.7,23.83-2.17-2.3-4.24-4.47-6.25-6.66-.35-.38-.77-.94-.65-1.32C621.08,515.28,622.72,510.37,624.66,505.54Zm-23,18.2,2.2,5,3.4-4.39,15.09,8.47-.65,1.17c-1.34.13-2.88.65-4,.34-7.87-2.21-15.81-4.34-23.33-7.08-1.77-.65-2.68-3.55-2.74-5.44-.05-1.44,1.86-2.91,2.81-4.26L596,525ZM594.9,212.25l-.22,1.88-8.79-.45-3,5.17-3.21-.93,3.14-6.28Zm-11.8-9.06,9,2.17a63.81,63.81,0,0,0-6.17,3.16,19.93,19.93,0,0,0-3.08,3.05c-.94-.83-2.8-1.78-2.63-2.45C580.66,207.16,582,205.32,583.09,203.19Zm-3,12.29-7.37,3.8-3.43-4.62ZM569.79,189l-2.71,10.11-11.85-2Zm-14.71-9.13,5.64.36a32.49,32.49,0,0,1,2.76,4.88,14.2,14.2,0,0,1,.26,3.93c-1.17-.55-2.26-1.43-3.52-1.61C553.94,186.55,554.06,183.53,555.09,179.84Zm.82,55.1c2.69,1.54,6.88,2.75,7.65,4.7s-2,4.56-3.16,6.88l-2.35-.33-3.6-10.42ZM553,316.78l11.9,13.82L555.85,334a27.61,27.61,0,0,0-3-4.94c-.68-.75-2.49-.95-3.79-1.4l-2.84.47Zm-5,429.08,4.2-2.37,4.16,6.3c-6.61-.63-11.83-1.73-12.07-6.94Zm-2.83-216.24,9.48-3.42c.35.89.61,1.7.21,2-2.25,1.46-5.2,2.35-7.88,3.46Zm10.09,60.45-5.87-3.23,5.13-5,2,7.47Zm-9.65-265.41c-5.48-5.09.41-6.73,4.24-8.9ZM482.28,721.75a5.52,5.52,0,0,0-1.36-3.21c-2.66-3.59-4.35-7,.35-10.55.93-.71.36-2.87-.22-4.19-1.44-3.3-3.6-6.46,4.1-7,1.75-.12,3.28-1.84,4.94-2.84Q511.65,702,527,715.41a3.21,3.21,0,0,1,0,4c-5.8,5.52-11.92,10.86-18.08,16.17a7.41,7.41,0,0,1-3.79,1.54C495,738,481.87,729,482.28,721.75Zm19,18.52-5.83,7-2.13-.35-4.91-10.63.93-1Zm11.13-89.2,7.71-.51-3.63-6.05c2.15.09,7.07-.72,8.69.62,2.54,2.1,2.85,5.66,4.27,9-4.34.68-9.32.15-8,4.93l2.47-1.52,1.46.39-4.72,9.51c2.33,1.37,6.48,3.72,10.47,6.19a4.64,4.64,0,0,1,2,2.39c2.79,9.42,5.45,18.86,8.15,28.3l-2.23.8c-11.75-8.83-24.19-17.24-34.88-26.71-3.9-3.46-4-9.41-5.08-14.32-.31-1.42,2.07-3.15,3-4.47l15.28-3.78Zm5.76,83.39c.89-2.26,1.18-4.27,2.43-5.86s3.55-2.75,5.25-4.19c3.09-2.62,5.3-1.65,7.75.65a47.81,47.81,0,0,0,6,4.1l1.51-1,1.85,5.33-26.14,2.26-.16-1.3Zm20.63-87.09L535.54,632l2.26-1c1.86,1.49,4.74,2.77,5.4,4.51C545.15,640.67,543.23,645.43,538.85,647.37Zm7.84-487.81c-.17,5.77-.37,5.86-7.81,3.71Zm-8.4,44.2,3.5,6-7,4.8,3.24,3.86-1.73.73c-1.64-2.4-4.82-4.91-4.54-7.19C532.14,209.07,532.71,205.09,538.29,203.76ZM527.46,213l6,7.64-1.66,1.05L525,214.24Zm-4.22,115.11a25.66,25.66,0,0,1-.32,5.7L521,334l-3.53-7.09C520.61,327.52,523.19,327.7,523.25,328.08ZM523,624.85c8.55,2.15,2.33,6.71,2.47,10.29l-1.58.94-10.41-7.76C517.3,626.86,520.89,624.31,523,624.85Zm-18.28,16.65-1.33-.66,6.66-7.15,1.66.42,1.45,4.54Zm-1.26-6L508.36,624C514.77,626.57,514.26,627.83,503.5,635.54Zm9.67-309.09c-6.25-.74-8-5.3-4.26-8.88Zm-5-136.91,2.29,1-4.52,6-2.89-1.2Zm-15.72-13.07c1.17-.95,2.5-1.78,3.77-2.67l3.37,3-11.16,3.33C490.11,178.6,491.22,177.48,492.48,176.46Zm6.74,434-6.94,3.36-2.48-6.34,1.95-.65Zm-6.07,9.07c.7-.52,4.07,0,5.05.81,2.22,1.83,3.72,4.14,6,6.81l-4.33,2.68c3.07,2.46,3.1,4.5-.58,6.53-.86.48-.75,1.91-1.09,2.9l1.74,1c-1.39.1-3.83.53-4,.23-1.31-2.23-3.14-4.67-2.83-6.89.19-1.34,1.06-1.91-.36-3.41-.88-.93,1-3.26,1.64-5.07l-6.49.35C489.91,623.06,491.12,621,493.15,619.49Zm-7.74,23.89c-6.38-3.08-6.78-6.69-1.74-12.15C490.32,633.72,490.75,636.38,485.4,643.38Zm-3.27-98.17c1,1.5,1.38,2.49,2.24,3.06s2,.44,3.1.64l-1.5,1-10.15-1.64ZM472.54,716l-1.19.29L463,702.66l8.53.91ZM465,687.88c1.73,0,4.64.4,5,1.13,2,4.28-3.72,5.51-6.71,7.61-1.15.8-4.85.82-6.18.06-3.33-1.9-3.42-4.58-.78-7.14.39-.38.8-.74.79-.73A67.76,67.76,0,0,1,465,687.88Zm-8.26-53c-5.57-2-5.64-2.61-1-7.43.89-.92.51-2.5.71-3.78l1.8.13,3.61,6.65Zm3.44-344.23L459,295.35c-2.87-2.62-5.06-4.17-6.4-6.06-.5-.7,1-2.16,1.55-3.28l2,.58v4.91Zm-7.9-194.38c3-.56,6.17-.39,6.44,2.87.18,2.15.48,4.3.73,6.45l-.89,1.13c-3.38-2.51-6.81-5-9.95-7.64A7.88,7.88,0,0,1,452.26,96.25Zm-27.58,69.82,1.13-.24c4.63,3.31,9.13,6.72,14,9.85,1.1.71,3.4.4,5.15.56a62.78,62.78,0,0,1-6.87-4.24c-1.26-1-1.7-2.58-2.51-3.9L437.4,167l14.17,6.74-6.72,2.5c1.26,2.27,3,4.47,3.52,6.83.18.87-2.52,2.27-4.2,3.1-3.24,1.61-6.69,3-11.06,4.9L430.05,187l5.58-1.55.58-5.75-12.07-4.36,3-4Zm14.45,477.4c6.07,8.47,6.07,8.47-.7,10.77C433.08,650.71,434.39,647.29,439.13,643.47Zm-7.36,6.75c-4.44-3.25-4.44-3.25,3.35-7.78Zm18.74,24.46-11.81-7,1.43-1.24C446.37,666.84,449.14,670.15,450.51,674.67Zm-8.27,64.46,4.88,6.87L438,743.57Zm1.73-41.6c1.54,1.21,3.45,2.31,4.62,3.74s1.57,3.17,2.57,5.34C442.94,704.72,440.69,701,444,697.53ZM432.59,194.06l1.64,1.93L425,203.58l-3.78-7.72Zm-14.9,456c-4.78-.64-9.94-1-8-7.34ZM380.91,300.69l10.27-17.92v6.16l2.9-1.29,2.4,7.61,7.42-5.86,4.61,4.21-3.67,4-.6-.86-9.83,2.56v-2.66Zm12.63-84.95,3.68,2.41,1.58-3.27,4.1,3.42C395.4,220,392.74,219.3,393.54,215.74Zm17.1,61c-.28,6-1.17,6.55-10.14,5.33Zm-11.71,445c.22-1.2,2.24-3.14,3.34-3.11,1.85.06,3.63,1.42,4.69,1.89l8.18-1.15c-.29,2.55-.19,5.18-1.15,7.59-.25.63-4.63,1.28-5.71.65C405.07,725.72,398,726.84,398.93,721.74Zm13.7,8.76,4.4,2.79c-1.56,1.06-2.93,2.36-3.34,2.21-1.48-.53-3.13-1.4-3.71-2.45C409.7,732.55,411.68,731.37,412.63,730.5ZM380.57,170.87l1,0,.83,2.92,8.16-3.89.24,2.88a45.94,45.94,0,0,1,5.88-.93,60.68,60.68,0,0,1,6.7.48l.3,2.75,9.22-5.16,1,.61-3.47,3c.57,2,2,4.1,1.31,5.71-.42.93-4.31,1.31-6.67,1.38-1.16,0-3.15-1.08-3.43-1.91-1.21-3.61-4.06-3.5-8.29-3.1s-8.69-.4-13.83-.72Zm-6.76-.4,3.8,13.48-8.15,1v-5.84h.05C367.35,176.42,367.35,176.42,373.82,170.47Zm-41.08,58.47L331,227.19c2.89-1.88,5.89-3.67,8.6-5.67,1.15-.85,1.71-2.13,2.55-3.22a84.25,84.25,0,0,1-9.64,1.28c-4.28.1-6.4-1.8-5.23-4.88s4.24-3.5,7.94-2.17c1,.34,2,.6,2.95.89L340,208c3.07,1.78,6.38,2.74,7.19,4.38,1.49,3,3.58,7.78,1.69,9.27C344.73,224.95,338.26,226.62,332.73,228.94Zm4.24,4.71-1.58-2.13,16.11-8,2.34,2.46-6.66.68,3.49,2A43.11,43.11,0,0,1,337,233.65Zm2.62,7.16-1.37-3.1c5.42-.44,10.4-.89,12-5.55.35-1,2.58-1.67,3.24-2.73s.33-2.3.44-3.47l0,0,4.25-4.75c5.94,4.28,5.63,4,1.43,7.08-1.88,1.36-2.38,3.85-3.14,5.9a21.6,21.6,0,0,0-.68,4.69l5.33-1.05-.62,5.05,4.49-3.06c-.28,1.67-.18,3.43-.67,3.52a14.71,14.71,0,0,1-6,.16c-3.16-.82-5.9-2.67-9.09-3.21C346.36,239.86,343.15,240.59,339.6,240.81Zm1.19,15.93,8.31-8.23,12.36,4.09C356.12,259.68,347.94,255.72,340.79,256.74Zm-5.48,87.62c.81-1.33,4.81-1.61,7.38-2.37-4.17-2.2-8.34-5.16-5.68-10.25,8.17,2.14,8.17,2.14,12.72-.74l2.43,2.67a28.29,28.29,0,0,0,3.3-1.62,13.89,13.89,0,0,0,2-2.06l14,4.93-4.47-11,3.55-1.37-10.28-9.94.88-4.85-1.85-.44L355,310.09l-1.68-2.79-.57,1.32-13.52-2.47a40.58,40.58,0,0,1-.26-5c.06-.72.56-2,1.11-2,5.57-.83,11.19-1.47,18.41-2.36,2.33-2.86,5.39-7.06,9.1-10.91,1.22-1.27,4.12-1.66,6.26-2.45l-.85,5.47.71.46h9.38c-1.18,7.62-9.76,10.71-16.56,15l2.75-.11-4.42,4.32,24.51,6.6-2,5.69c4-.2,5.36,1.69,3.7,5-3.74-1.43-8.57,1.22-11.62,6.54l4.73,2.61c-.61.79-1,1.82-1.91,2.28-.67.33-2.07,0-3.1-.23-1.2-.21-2.37-.54-3.55-.82-.77,3.31-4.48,2.75-7.47,3-5.32.39-6.33,3.52-8.38,6.32a10.11,10.11,0,0,1-6.38,3.68c-7.69.49-8,.29-13.13,4.66C335.73,351.41,332.9,348.31,335.31,344.36Zm51.14,349.13c-1.06.41-2.84,1.32-3.06,1.15a41.75,41.75,0,0,1-4.08-4l2.9-1.43ZM338.82,497.07l-1.56,6.37-10.75-6.78Zm-7.24-18.92,10.2,5.18c-3.93.32-6.66,1.09-8.58.49C332.08,483.46,332.27,480.88,331.58,478.14Zm2,202.65c3.22-1.16,6.25-3,9.42-3.14,2.57-.12,5.31,1.78,9.1,3.21-17,3.85-20.29,3.41-20.57-2.88ZM356.3,455.43l-8,9.2C343.41,460.47,343.41,460.47,356.3,455.43Zm-5.44,15.41,1.79-.84,5.1,2.14,3.46-4,1.73.35c-.76,1.73-1,3.8-2.46,5.09a7.84,7.84,0,0,1-5.69,1.1C353,474.11,352.13,472.18,350.86,470.84ZM364.51,605l2.77,6.27c-1.17.18-3.33.58-3.36.5-.84-2-1.46-4.13-2.12-6.22ZM334.42,431.24l1.44,6.37L346,436.32l-2,3.53,5.55-2.26c.65.77,1.13,1.83,2.12,2.35s2.42.41,3.84.6c-4.17,6-7,12.44-18.79,9.94-1.13-5.6,3.44-13.28-9.42-15.79Zm-8.57-105,2.27-.63,4.73,7.92C323.87,331.77,323.07,330.77,325.85,326.27Zm6.25,130.49c.75-.22,2-.53,2.37-.28,4.38,2.69,6-.22,8.11-2.1a7.86,7.86,0,0,0,1.29-2.24l2.16,1.27-7,10.16-16.41,6.12C321.95,465,326.74,458.34,332.1,456.76ZM314,657.93l10.81,6.43-6,3.33-2.3-1.06C321.17,662.8,308.56,661.61,314,657.93Zm-1.28,31.74-6.36,3.64-3.11-8.12ZM311.19,454.2c-7.46-1.16-10.74-2.84-7.68-7.35Zm-3-46.89-3.92,8.21-2.48-.24-.7-8Zm-13.12-20.07-5.74,6.7-6.76-5.42Zm-18.47-8.68,8.23.92L281,381.64l2.85,3.47-4.89,2.2C274.62,384.89,272.16,382.35,276.58,378.56Zm-1,20.25-12.11,10.42-5.45-12.52ZM262,409.75l-7.65.75v-8.2l2.27-.65ZM257.8,356a30.25,30.25,0,0,1,4.32,4.55l-1.65,1L252.29,357C255.15,356.49,257.29,355.67,257.8,356Zm-44.18,13.07c.31-.78,4-.82,7.95-1.5l-4.64,6.87-2.45.2C214.08,372.8,213,370.77,213.62,369.12ZM213,589.29l-11.66-4.35C209.22,582.54,211.2,583.33,213,589.29Zm-5.76,6.07-4.41,4.19v-11.4c4.76,1.61,10.54,2,8.46,8.68l5.39-3.19,5,4.36C215.71,601.31,214.66,601.1,207.24,595.37ZM216.5,435.2c-2,.44-5.43-2.71-7.53-3.85,3.09-1.78,5.88-3.34,8.58-5,2.89-1.74,5.61-3.08,7.12,1.72l1.73-.82.8-8.88-13,7.23,4-8.5,3.64,1.66c.74-5.15.74-5.15,12.53-8l1.72,11.32c4.23-5.36,10-9.43,17.7-6.81,3.06,1,3.53,6.21,5.27,9.67l1.75-2.19,8.55,1.12-9.1-5.86,5.34-2.79,7.48,8.62,1.43,1.9,10.18-2.3c0-.09,1.24,1.45.65,2.22-.71.95-2.92,1.47-4.62,1.77a29.58,29.58,0,0,1-5.09.05c1,2.16,1.83,4.28-1.83,5.67-2.82,1.07-5.52,2.88-8.37,0a6.67,6.67,0,0,0-2.8-1.08c-4.39-1.11-8.81-2.17-14-3.45a29.29,29.29,0,0,1-3.33,4.92c-.3.33-4.1-.25-4.39-.89-1.26-2.71-1.8-5.6-2.71-8.78-1.2,1.05-3.26,2.2-4.1,3.71C230.84,433.4,223,433.74,216.5,435.2ZM247,454.5c-.37.83-.64,1.86-.86,1.86-2.33,0-6.45.07-6.64-.5-.7-2-.08-4.32,0-6.51l2.58.36v4.56Zm13.73,10.69c-11.69-1.69-9.21-9.42-14.07-13.64l.47-1.68L265.52,452l.6,1.56C258.06,455.89,267.46,463.32,260.71,465.19Zm17.9,4.67c-7.09,3-9.78,2.28-14-3.72Zm-19.62.38a61.73,61.73,0,0,1-6.89,4,6.64,6.64,0,0,1-4.53,0,9.25,9.25,0,0,1-3.38-3.75c-.21-.39,1.44-1.91,2.13-1.87,1.29.07,2.5.9,4.09,1.56l2-1.85Zm-9.71,80.24a49.26,49.26,0,0,1,5,.18c-.48,1-.61,2.41-1.53,2.78a10,10,0,0,1-4.89.26c-1.24-.22-2.22-1.2-4.08-2.29A55.18,55.18,0,0,1,249.28,550.48Zm-1.72-53,.41-2.42,9.67.54-.35,2.92Zm9.27,193,3.29,2.7,4.45-6c5,1,9.46,2.15,8.34,7.14-.13.6,1.41,1.32,1.61,2.06a7.16,7.16,0,0,1,.1,3.9c-.13.4-3.06.85-3.27.61a7.56,7.56,0,0,1-1.26-3.11c-.24-.89-.31-1.81-.64-3.88-2,1.48-3.52,2.2-4.27,3.22-3.54,4.79-4.32,4.84-8.8.24-.61-.62-1.37-1.17-2-1.68Zm15.23-61.43-3-7.39,1.31-.93,7.64,3.14ZM278,487.35c2.21-1.41,5.2-5.19,8.23.37Zm-47,63.2,5.53-3.75,2.14,7.18Zm53.44,196.21c-16.58-2.86-33.21-3.17-44.92-13.13-1.27-3.5-2.79-7-3.73-10.5-.54-2-.15-4.2-.19-6.31,3.09.12,6.19.17,9.27.4a11.81,11.81,0,0,1,2.8.91l-5.27,5.48,11.83-4.13-9.42-9.8c7.3,0,12.39.79,14.39,6.77l4-4.52c7.17,2.53,3.65,5.77,1.74,9.27l6.17-1.29,3,7H269.2l3.37,5.64,3.55-.75Zm6.53-13.6-11.17-2.41c-6.32-6.11-7.72-12.38-2.51-17.09-.3,2.85-1.5,5.14-.44,6.39,1.29,1.51,4.5,2.13,7.07,3.22l1.72-2.36,1.87-.24Zm-4.44-331.34c-3,.67-6,1.31-9.54,2.09l1.62,2.53-.8.81-4.47-2.11c1-1.06,2-2.11,3-3.17l4.13-4.41,8.44-1.85C293.58,400.21,293.58,400.22,286.47,401.81Zm16.61,319.62c-11.43-3.33-11.43-3.33-7.45-12.1l14,13.72C306.16,722.2,304.59,721.87,303.08,721.43Zm147.57,75.26c-4.59-2.73-8.8-5.31-13.11-7.79-8-4.6-16.15-9.09-24.1-13.75a45,45,0,0,1-5.39-4.28c2.33-1.13,4.64-2.26,7-3.37.52-.25,1.11-.41,2.15-.79H399.82l-.88-5.56c-2,.5-4,1.05-6.07,1.47-1.2.25-2.75.68-3.69.34-7.79-2.83-15.46-5.81-23.17-8.75l.38-1.33,8.91-.41-.56-3.45,6.23,2.64c-.57-2.39-.49-4.81-1.3-5-2.5-.52-5.33-.19-9.15-.19l9.82-14.77c-7.22-1-13.63,2.62-20.27,5-1.94.7-2.86,3.74-3.19,5.8-.44,2.67-.18,4.27-5.46,3.74-10.72-1.07-17.66-6.47-24.76-11.18s-14.41-9.84-15.18-17.76c-.07-.69-1.53-1.33-2.39-2-4.9-3.57-10-7-14.66-10.75-2.47-2-5.68-4.05.64-6.57,1.68-.67,4.69-3.22,7.5-5.65l1.4,5.28c8.63,1,15.08-1.51,19.57-7-1.29,3.91-6.86,7.38-.88,11.42l1.82-5.68,2.16.24a27.63,27.63,0,0,1-.93,6c-.14.38-2.84.27-4.36.39-.07,1.85-.82,3.86-.07,5.5,1.2,2.58,3.4,4.91,5.41,7.66l6.76-9.56c1.71-.17,5.25,3,4.19-1.66l8.85,5.23c-1.86-6.12-3.62-10.42-11.67-11.45-1.46-.19-2.92-2.39-3.48-3.85-.86-2.21-.93-4.58-1.46-7.53,14.6,3.86,28.85,6.54,39.19,15,1.17,1,3.58,1,5.29,1.7,4.7,1.82,9.34,3.74,15.11,6.06-3.36.66-6,.66-7.58,1.62-2.28,1.39-5.85,4.36-5.25,5.12,3.45,4.4-.54,7.15-3.49,10.46l13.2,2-4.88,6.37.65.36,3.6-2.29,11.77,5.34c-1.23.93-4.25,2.27-5.18,4.16s-.84,5,4.57,4.25V752l3-2.13,2.32,3.35,2.39-3.75,2.27-1.63,4.71,4.35,3.57-3.66c-1.92-3.78-10.84-5.71-4.32-12.15,1.87,1.38,3.61,2.78,5.52,4,2.39,1.58,2.78,6.24,9.39,2.17a30.46,30.46,0,0,1-.05,5.2,58.35,58.35,0,0,1-1.8,6c-1.21,3.81-1.42,7.17,6.44,6.83-1,5.38-14.11,3.63-10.08,12.18,1.18-8.89,11.5-6.24,16.86-9.48l-1.19-4-7.64-4.87,7.56-6.23,2.66,1.52,1.26-3.22c2.94,3.49-.49,9.37,8.06,11.18v-6.36l5.67,4.81,4.2-7.42,1.14.32-.6,4,1.23.63,2.26-3.91,7.94,5.31-23.54,6.32,8.76-.47,1,3.93c2.51-4.73,7-7.31,13.52-7.62a12.42,12.42,0,0,1,6.07,1.78c.57.32.11,2.5-.78,3.25-11,9.22-15.46,20.87-22,31.75C452.25,794.68,451.67,795.34,450.65,796.69Zm79.63,46.87c-16.16-4.9-32.3-9.92-47.91-15.68-12.6-4.65-19-13.64-24.67-22.7a4.23,4.23,0,0,1-.52-3.68c5.35-11.88,8-24.52,18.25-35,1.23-1.27,2.57-2.48,5-4.77,4.75,6.12,8.78,11.32,12.82,16.5,7,8.95,14.48,17.7,20.83,26.88,7.7,11.13,16.37,22,20.16,34.41C535,841.92,535.72,845.21,530.28,843.56ZM708.57,969.79a11.66,11.66,0,0,1-.73,2.19c-9.08-5.34-17.89-10.33-26.42-15.57-37-22.74-70-48.33-98.31-77.07a177.09,177.09,0,0,1-18.55-21.77c-4.34-6.14-7.28-12.88-10.07-19.53C547.72,821.87,539,806.51,526,792.36c-10.51-11.43-19.31-23.71-28.92-35.59-2.42-3-1.86-5.65.95-8.36,5.61-5.42,11.34-10.32,22.1-9.62,4.2.27,8.57-1,12.85-1,2.08,0,4.14,1.45,5.88,2.12-4.63,2.06-7.87,3.23-10.53,4.91-.55.35,1,2.54,1.76,4.17-2.45.86-4.62,1.58-1.33,4.65,3,2.83,5.31,1.56,7.22.37,3.93-2.44,7.58-4.5,13.19-3.25,6.93,1.54,12,4.21,15.58,9.2a650.44,650.44,0,0,0,75.56,88.46c7.7,7.47,16.64,14.25,24.64,21.56,14.38,13.13,28.74,26.28,42.51,39.76,3,2.95,5.07,7.32,4.91,11C711.63,937.09,709.94,953.44,708.57,969.79Zm2.73-193.72,1.67-.21,2.45,10.74C712.12,785.43,712.12,785.43,711.3,776.07ZM722.61,614a9.29,9.29,0,0,0-.86,2.5c-.08,5,0,10.09-1.5,15.2-4.78-6.31-10.14-12.42-14.09-19a13.43,13.43,0,0,1-1.25-10.74c2.82-8.24,6.95-16.23,10.78-24.85,8.91,4.11,7.84,9.82,8.94,14.88.71,3.29.07,6.51,1.43,10S724,609.94,722.61,614Zm89.94,269c-9.43,17.55-23.37,32.92-41.32,46.4-3.15,2.36-5.25,5.47-8.42,7.81a10.61,10.61,0,0,1-6.67,1.64c-1.29-.2-2.61-2.69-2.74-4.21-1-11.59-2.07-23.18-2.56-34.79-.58-13.7,5.7-26.23,13.42-38.4.74-1.17,2.86-1.86,4.34-2.77l1.26,1.07-2.8,2.71,4.78,9.59c4.32-.36,8.17-.24,8.45,4.22a41.61,41.61,0,0,0,1.46,6.57l-.06,0,4.31,2.39-5.45-24c2.85,5.57,14.53,11.64,20.74,10.69,3.62,8.79,3.32,10.57-10,8.71l14.17,12.41,4.9-16.47C814.65,878.77,814.77,878.81,812.55,882.93Zm41.12-74.4c-8.94,15.88-17.5,31.87-26.23,47.81-3.85,7-3.89,7-10.82,1.7-7.87,3.44-7.88,3.63-2.24,8.41a12.23,12.23,0,0,1,4,5.38L804,864.3c-.51-.27-1.34-.54-1.42-.89-1-4.52-4-3.38-7.59-1.64-.88.43-2.47.06-4.11.06v4l-1.48.19c-.75-2.14-2-4.26-2.14-6.41-.4-6.11-4.19-9.34-15.17-8.45,3.68-3.48,5.76-6,8.52-8,16.43-11.84,27.85-25.87,34.79-42,1.77-4.11,3.08-4.19,7.49-.36,2.11-4.94,5.5-5.53,10.86-3.14,3.84,1.71,8.28,2.68,13.05,4.17l2.51-2.59C852.83,802.21,856.06,804.29,853.67,808.53Zm9-45.39c-2.27,1-5.89.24-8.93.24l-.06-1.49,9.36-5.05,1.8.68C864.13,759.48,864.27,762.44,862.62,763.14ZM875.24,744c-3.07-3.74-6.08-7.55-9.26-11.27-3.93-4.62-1.19-10.61,6.69-14.61,2.07-1.05,3.86-2.41,5.92-3.48a40.18,40.18,0,0,1,4.41-1.69c.09,1.31.48,2.67.15,3.93-.21.81-1.45,1.48-1.49,1.52,1.44,2.05,3.79,3.84,3.31,5-1.59,3.83.57,8.85-5.73,11.67C882,740.67,881.36,742.31,875.24,744Zm9.57,55a48.38,48.38,0,0,1-3.77-4.31l2.63-1.17,4.08,4.54C886.73,798.42,885,799.18,884.81,799Zm3.54-172.41-2.65-1.17,2.7-6,4.37,3.36Zm28.16,127.72v8.75c-8.08-3.81-9.86-3.49-15.73.83-1.65,1.21-4.66,1.42-7.35,2.18-.34-6-.95-6.81,8.16-15C902.86,755.17,905.64,755.79,916.51,754.34Zm-6.86-20.42,7-6C918.09,734.3,917.89,734.45,909.65,733.92Zm9.77-35.24a22.68,22.68,0,0,1-6.32,2.49c-1,.19-2.44-1-2.74-1.12a60.3,60.3,0,0,1-7.34,4.43c-.41.18-3.2-1.48-3.64-2.57-1.09-2.69-.77-5.22,3.23-6.93,3.55-1.51,6.83-4.87,9.9.36.2.34,1.92.16,2.93.28,1.68.2,3.36.44,5,.67C920.15,697.1,920.17,698.26,919.42,698.67Zm16.31-37c-1.4,5.44-6.52,6.4-12.27,2.71-.8-.52-1.76-.91-4.55-2.33,2.71-2.49,5.19-4.64,7.45-6.91a5.22,5.22,0,0,0,1-2.43c.68-2.38,1.31-4.78,2-7.17l2.44-.1,3.9,6.08,1.41-5.6,1.13.08C937.4,651.25,937.05,656.54,935.73,661.69Zm-4.37-37.29,1.61,9.9C927.05,632.61,926,629.28,931.36,624.41Zm8.78-152.7c-1,2.39-1,5-1.28,7.52-.69,5.5-4.06,8-11.12,7-2.08-.29-3.43-3.36-4.47-4.47l12.11-9.56-1.63-8.2C938.86,466.08,941.75,467.75,940.14,471.7Zm-2.27-353.55,1.07-1.24,9.31,4-6.16,1.8Zm21,140.82,1.6.63,6,11.6-15.73,5.37c1.68-5.93-4.57-2.61-8.67-4.46C952.41,270.39,957.11,265.64,958.88,259Zm-15.66,416.4c2.54-3.85,9.29-6,17-5.13C955.74,676.25,949.35,678.07,943.22,675.38ZM948,657.1c13.16-1.32,17.85-10.08,26.72-14.86,2.56-1.38,5.08-4.12,8-1.52,1.8,1.58,3,5.09,1.84,6.63a65.21,65.21,0,0,1-12.38,12.13C967.77,662.85,952.92,661.25,948,657.1Zm33.55,12.3-.64-1.46L996,664.52l.48,1.23Zm-2.05-10.83c1.48-5.94,5.54-8.53,11.64-7.05-.08-.85-.58-1.79-.14-2.24a25.67,25.67,0,0,1,3.69-2.72c.95,1,2.84,2.12,2.69,3C996.62,654,985.75,659.32,979.5,658.57Zm19.63-3.32c1.74-7.25,3.58-8.31,13.23-7.07Zm7.81-132,6.57-3.19,2.37,5.61Zm12.4-295.52a38,38,0,0,1-6.33.16c1.81-.33,2.65-1.47,2.1-3.12-1.19-3.54-3.17-6.94-4.26-11l10.67,8.93.77-8.9,8,10.42,1-4.22,1.71-.11.93,5C1028.9,225.9,1024.18,227,1019.34,227.72Zm9.58,430.6,3.13-8.54C1036.39,657,1036.17,657.95,1028.92,658.32Zm3.15-455.6a48.23,48.23,0,0,1-3.31-3.65c-1.54-1.6-3.17-3.16-4.76-4.74l2.11-1.23,12.82,8.86,2.76-1.58,10.71,9.42,1.59-4.25,5.36,2.78-2.75.87,5.09,6,1.94-1.17-1-6.24c-10.2-3.77-3.78-8.56-.66-12.88l5.93.38,6.36,7.22,16.24-7.79v5.78l6.31,1.41-.79,1.52c-1-.11-2-.15-3-.34-9.61-1.9-14.93,1.59-14,9.11,0,.4-1.34.9-2.05,1.35l2.07,5.67c-6.91,1.07-9,4.86-9.07,9.21l7.37,4.55c3-1,7-3.64,12.31-.33l-5.73,1.46.1.79,7.59-.46c.66,4.55-1.59,7.67-6.61,10.18-1.73.86-1.88,3.35-3,5-1.31,2-2.85,3.94-3.42,4.72-6.48-1.4-11.68-2.2-16.46-3.71-2.24-.71-3.71-2.77-5.47-4.25-2.5-2.12-4.95-4.28-9-7.76l13.69-2c2.09-2.29,4.91-4.06,5.22-6,.35-2.27-1.54-4.72-1.27-6.94l.5-7.29L1051.93,215c-2.18-5.45-8.18-7.5-15-9C1035,205.51,1033.49,203.94,1032.07,202.72Zm24.92,334c-2,1.13-4.47,3.4-5.84,3.08-3.17-.74-6.13-2.62-3.84-5.83a4.45,4.45,0,0,0,.4-1.49l2.67,1.19,3.07-6.61,4.2,5.42,2.09-7.8,1.15-.31,3.85,7.72C1061.21,534.21,1059.12,535.5,1057,536.73Zm12.64-2.48-1.38-.61,4.55-11.33c1.73,2.53-2.49,6.3,6.48,6.68Zm30.15,126.39-.1-1.28-4.45,2.89-6.07-3.68,10.93-6.08,6.65,8.54Zm-4.57-18.79H1104v4.67l-1.49.64Zm17.84-5c-4.61,1.6-9.51,2.76-14.3,4.08-1.18.32-2.37.62-3.56.92l0,0-5.41-6,15.43-6.56c2.32.77,4.32,1.34,6.2,2.09,1.54.61,3.91,1.29,4.14,2.19S1114.37,636.38,1113,636.84Zm-.33-35.87,7.64-7.08c1.21,1.41,3,3,3.87,4.86.21.44-2.45,2.09-4.07,2.41C1118.21,601.55,1116,601.1,1112.71,601Zm11,36.43c-1.61,1-4.05,1.33-6.14,1.94l-1-1a34.81,34.81,0,0,1,3.23-3.91,13.33,13.33,0,0,1,3.74-2.22c.21-.09,2,1,1.9,1.46C1125.2,635,1124.88,636.63,1123.68,637.4Zm12.58-107.24c-.08.67-2.69,1.91-3,1.73-2.53-1.28-4.79-2.86-7.13-4.34l1.65-1.41C1129.27,529.19,1136.92,524.66,1136.26,530.16Zm28,94.46-14.62-.87-.16-1.77c4-3.28,9.61-2.17,15.27-2.62Zm33.74-124c-5.72-2.16-8.62-1.53-9.37,3.24-.56,3.6-8.77,7.73-13.75,7.62-3.81-.09-8.14.24-11.29-1-4.41-1.68-6.21-.7-7.87,2.29l-2.71-4.53-3,2.41c-5.55-.83-8-7.59-15.43-4-2.07-5.8-.84-7.78,5.53-9.24l-8.14-3.82,2.24-2.57-1.46-7c-2.84,0-5,1.37-5,4.58,0,1.58.65,3.2.3,4.72-.65,2.76-1.91,5.33-6.86,3.24l6.52,6.46,3.27-5c-.34,3.6,1.95,7-5.19,6.59-1.61-.09-3.43,2-5.15,2.5-2.95.68-8.38,1.31-8.4,2a13.81,13.81,0,0,0,2.8,8.15c1.36,1.89,4.77,2.93,6.46,4.76.91,1,.6,4,0,4.09-7.72,1.72-15.57,3.12-23.41,4.51-.63.11-1.47-.4-3-.86l4.68-2.52c-1.37-.74-2.45-1.44-3.68-2-3.84-1.62-9.45-1.42-10.66-5.83-.13-.48-2.65-.51-4-.92-2.47-.76-4.87-1.64-7.3-2.47l.93-1.42,5.68,1.35,2-11.81,7,6.09,1.84-5.13,4.07,1.92,2.74-4.33c.71,1.47.78,2.48,1.5,2.92a23.64,23.64,0,0,0,4.19,1.61,15.89,15.89,0,0,0,1.24-3.32,53.17,53.17,0,0,0,.64-8c0-1.64-.72-3.27-1.21-5.29l9.55-1.28c-1-3.68-10.31-8.95-15.89-8.55l21.54-19.08,1.24,8.53c4.46.17,9.54,1.9,9.29-3h7.43l-2.91,4.7,1.08.6,3.88-1.89,6.65,5.22c2.91-3,5-5.93,8.13-8.09s6.34-.33,8.15,4.92c1.75-.42,3.52-.72,5.15-1.26s2.92-1.26,5-2.2v4l8.86-2.68c-3.75,2.25-7.59,4.43-11.19,6.8a32.1,32.1,0,0,0-4.19,3.85c2.4,1.26,4.59,3,7.26,3.67s6.26,0,5.7,2.71c-4.4,0-8.44-.47-12.21.09-8.78,1.31-11.13,7.45-5.38,12.68,2,1.78,3.34,3.89,5.34,6.27l5.06-2.32.83,3.64,7.83-1.88,1.09-4.88,3,.62,7.5-10.9,2.16,0,4.18,8.47Zm18.7,11.84-12.19-1.64,14-6.53Zm-2-36.29c.57.35.08,1.63.08,2.48-1.3-.15-3.17,0-3.8-.52-1.36-1.21-2.09-2.81-3.9-5.44A74.1,74.1,0,0,1,1214.77,476.17Zm-4-4.72c.54-1.28.78-2.72,1.79-3.75.31-.32,2.72.48,4.17.76l-3.27,3.88Zm32.4,107.78v-7.84l-5.27-2.9,10.29-3.41,5.49,14.8ZM1264,529.74c2.31-2.88,5.9-4.67,1-7.7-.18-.11.33-.82.73-1.75l18.32,9.33c-12.51,2.25-15.73,5.35-13.85,12.55l-5.42-5.67-2.27.63,1.31,8-12.6,2.5-.36,5.89-.69.06-2.73-9.42-2.12-.08c1.11-.48,3.11-.9,3.18-1.45C1249.36,535.6,1259.89,534.86,1264,529.74Zm-23.93-12.46,1.19-9.5,8.76,9.87.7-6.91,1.55-.22,1.51,3.92,5.74.27-8.54,3,3.77,1.15-1.41,7.15-15-8Zm3.83,6.85,1.32,1.58-7.94,4.45C1237.23,526,1238.74,523.3,1243.9,524.13Zm-6.5,86-.47-2.34,3.64,1.16.46-3.8,5.89,3.43c-7.31,6.12-10.23,6.21-19.2.14Zm-9.14-95.82c-2.58,1.81-9.65-1.61-9.32-4.36.26-2.15,1.1-4.26,2-7.45l3.52,6.85,5.79-1.55C1229.49,510.57,1229.86,513.23,1228.26,514.35Zm-3.3-64.21c-2.36-1.46-4.56-3.89-7.13-4.13-2.93-.27-6.2,1.41-9.78,2.36l-1.43-6.34,7.3,1.45-3.12-5.35,1.64-1,7.69,6.85,1.33-.26-.57-5.62,1-.18,4.86,11.62Zm-2.92-21.4c.9,1.3,2.14,2.54,2.48,3.91.09.37-2.61,1.62-4,1.56a26.77,26.77,0,0,1-5.71-1.27l-.18,2.33c-10.3,1.42-11.82,2.76-11.55,10.67h-5.91l1.8,4.26-12.3-1.75,1.88,5.4c-3.84,2.73-7.45,4.58-9.71,7.09-3,3.31-1.07,5.21,4.66,5a21.33,21.33,0,0,0,5.14-1.25l4.73,6.9,7.58-3.41-.47,5.37-7.53.57c-1.35-4.88-6.2-3.77-10.64-3.43l2.52-1.59c-6.27-.7-12.06-1.46-12.47-7,0-.63-1.75-1.74-2.62-1.71-4.7.17-5.35-2.13-6.55-4.68-.73-1.55-3.07-2.82-5-3.9-2.43-1.37-5.18-2.42-9.55-4.41,7.42-.89,8.72-2.74,4.86-5l13.29-5.86c-1.6-5.14,6-10.4,12.94-9.41,5,.71,10.14.62,16.06.93l4.85,7.29,8.65-7.1-1.7-2c4.95,2,8.33.74,11.07-2.26Zm-.54-90.88-1.56,8.76C1217.78,343.93,1213.09,341.17,1221.51,337.86Zm11.62,32.91c-1.61,3.5-3.66,6.88-5.92,11l-6.84-4.68c2.65-2.59,5.07-5.12,7.77-7.48,1-.91,2.73-1.42,4.13-2.11C1232.58,368.6,1233.54,369.85,1233.12,370.77Zm7.75-26.42a17,17,0,0,1-2.69-2.67,34.44,34.44,0,0,1,5.46-1c1.36,0,2.75.61,4.78,1.12l-1,6.13C1244.85,346.56,1242.73,345.56,1240.87,344.35ZM1252.69,355l-5.17-3,3.26-6C1256,347,1256.86,349.8,1252.69,355Zm-12.14-25,13.19,2.64,2.1,3.82C1250.23,334.61,1243.31,335.59,1240.55,330ZM1251,269.76c-4.08,3.75-5.75,3.58-9.57-.32a9.2,9.2,0,0,0-5.51-2.45c-1.08,0-2.11,2.36-3.53,3.39a19,19,0,0,1-5.83,3.27c-6.52,1.84-13.22,3.32-19,4.74l-1.91,6.91c4.69-.59,8.22.36,10.82,3.56,1.05,1.3,3.45,2.07,5.35,2.94,2.52,1.15,5.15,2.16,7.23,4.08-10-.55-17.86-6.21-27.9-6.11l-11-5.94,7.71-1.67,5.42,3.23-8.32-11.09,4.93-2.3c-1.37-1.08-2.68-2.21-4.13-3.22-1.29-.9-2.73-1.67-3.27-3.19l2.33,1.48,6.93-4.39L1202,259l1.89-.37,2.57,5.28,25.32-5-4.78-8.46,15,6.72-.35-5.76,1.92-.36,5.9,9.6,9.4,5.49-5,.9,2.09,4.85Zm12.8,88.27a55.42,55.42,0,0,1-7-2.91c-.3-.17,1.34-2.18,2.08-3.34l6.59,4.31Zm6.42-17.81c1.55-.74,4.23-.2,6.44-.2l.27,1.23L1270,345.6C1270,343.08,1269.23,340.67,1270.18,340.22Zm17.72,40.66,1.41,2.77c-3.23.82-6.43,2.12-9.72,2.25-1.47.06-3.1-2.25-4.66-3.48l1.29-.87,2.91,1.8Zm-1.11-12.54-8.65-2.08,2.4-4.89,6.53,6ZM1278,356.19l4.49-6.76,1.89,2.9c3.41-.28,5-6.4,11.17-.86Zm30.8,10.9,9.91,1.8C1315.65,372.55,1313.77,372.3,1308.84,367.09ZM1347.26,342l-2.93-6.86,2.69-.94,3.57,6.9Zm-.91-12.06-.28-1,6.45-4.32,1.75,3.85Zm23.23,30.84h0l-7.73-6.47c5.15,2.31,12.82-4.17,16.34,3.45Z" transform="translate(0 0)"/><text class="cls-3" transform="translate(979.54 777.38)">P<tspan class="cls-4" x="319.86" y="0">R</tspan><tspan x="648.72" y="0">O</tspan></text><text class="cls-3" transform="translate(979.54 1177.39)">TREE</text><text class="cls-5" transform="translate(2234.54 1177.39)">,INC</text><text></text></svg>